<svg width="38" height="38" viewBox="0 0 38 38" fill="none" xmlns="http://www.w3.org/2000/svg">
<g id="Frame">
<g id="Group 19">
<path id="Vector" d="M24.637 14.5154C24.5929 14.5604 24.5487 14.6043 24.5025 14.6516C21.9275 17.2144 18.6885 18.0883 17.2675 16.601C16.6204 15.9235 16.4609 14.8722 16.7246 13.687C12.4896 14.1942 8.56087 16.1948 5.61604 19.3432C2.67121 22.4917 0.894973 26.5908 0.59375 30.9334H37.1094C36.8539 27.2442 35.5326 23.7151 33.3126 20.7926C31.0924 17.8704 28.0733 15.6858 24.637 14.5154ZM10.9154 24.1633C10.5757 24.1633 10.2437 24.0605 9.96126 23.8677C9.67882 23.6752 9.45869 23.4012 9.3287 23.0808C9.19871 22.7604 9.16469 22.4079 9.23096 22.0677C9.29723 21.7275 9.4608 21.4152 9.701 21.1699C9.94118 20.9247 10.2472 20.7576 10.5804 20.69C10.9135 20.6224 11.2588 20.6571 11.5727 20.7898C11.8865 20.9225 12.1547 21.1472 12.3434 21.4356C12.5322 21.724 12.6329 22.0629 12.6329 22.4098C12.6327 22.8748 12.4517 23.3207 12.1296 23.6495C11.8076 23.9783 11.3709 24.1631 10.9154 24.1633ZM25.5365 24.1633C25.1968 24.1633 24.8647 24.0605 24.5824 23.8677C24.2999 23.6752 24.0798 23.4012 23.9498 23.0808C23.8198 22.7604 23.7857 22.4079 23.8521 22.0677C23.9183 21.7275 24.0818 21.4152 24.3221 21.1699C24.5622 20.9247 24.8683 20.7576 25.2015 20.69C25.5347 20.6224 25.8799 20.6571 26.1937 20.7898C26.5076 20.9225 26.7758 21.1472 26.9645 21.4356C27.1533 21.724 27.254 22.0629 27.254 22.4098C27.2538 22.8748 27.0728 23.3206 26.7508 23.6495C26.4288 23.9783 25.9919 24.1631 25.5365 24.1633Z" fill="#B52426"/>
<path id="Vector_2" d="M24.637 14.5166C22.7711 13.8833 20.8174 13.5614 18.8511 13.5634C18.1405 13.5634 17.4305 13.6051 16.7246 13.6884C17.0376 12.2725 17.9527 10.6619 19.3539 9.26616C21.9283 6.70148 25.1683 5.82869 26.5893 7.31676C27.9854 8.77774 27.1074 11.9729 24.637 14.5166Z" fill="#B52426"/>
</g>
</g>
</svg>
