<svg width="38" height="38" viewBox="0 0 38 38" fill="none" xmlns="http://www.w3.org/2000/svg">
<g id="Frame" clip-path="url(#clip0_218_416)">
<g id="EDCAN Symbol">
<path id="C" d="M21.4566 5.44773L19.1986 7.7058L16.9405 9.96387L14.6824 12.2219L12.4243 14.48L10.1663 16.7381L7.9082 18.9962L10.1663 21.2542L12.4243 18.9962L14.6824 16.7381L16.9405 14.48L19.1986 12.2219L21.4566 9.96387L23.1501 8.27039C23.4618 7.95872 23.9673 7.95872 24.2793 8.27039L25.9728 9.96387L28.2308 12.2219L30.4889 14.48L32.747 16.7381L34.4405 18.4316C34.7521 18.7432 34.7521 19.2488 34.4405 19.5608L32.747 21.2542L30.4889 23.5123L28.2308 25.7704L25.9728 28.0284L23.7147 30.2865L21.4566 32.5446C22.7037 33.7916 24.7257 33.7916 25.9728 32.5446L28.2308 30.2865L30.4889 28.0284L32.747 25.7704L35.0051 23.5123L37.2631 21.2542C38.5102 20.0072 38.5102 17.9851 37.2631 16.7381L35.0051 14.48L32.747 12.2219L30.4889 9.96387L28.2308 7.7058L25.9728 5.44773C24.7257 4.20069 22.7037 4.20069 21.4566 5.44773Z" fill="#00A9CE"/>
<path id="E" d="M23.7145 25.7709L25.9726 23.5128L28.2307 21.2547L30.4888 18.9966L28.2307 16.7386L25.9726 18.9966L23.7145 21.2547L21.4565 23.5128L19.1984 25.7709L16.9403 28.0289L15.2469 29.7224C14.9352 30.0341 14.4297 30.0341 14.1177 29.7224L12.4242 28.0289L14.6823 25.7709L16.9403 23.5128L19.1984 21.2547L21.4565 18.9966L23.7145 16.7386L25.9726 14.4805L23.7145 12.2224L21.4565 14.4805L19.1984 16.7386L16.9403 18.9966L14.6823 21.2547L12.4242 23.5128L10.1661 25.7709L7.90805 23.5128L5.64998 21.2547L3.9565 19.5612C3.64483 19.2496 3.64483 18.744 3.9565 18.432L5.64998 16.7386L7.90805 14.4805L10.1661 12.2224L12.4242 9.96436L14.6823 7.70629L16.9403 5.44821C15.6933 4.20118 13.6712 4.20118 12.4242 5.44821L10.1661 7.70629L7.90805 9.96436L5.64998 12.2224L3.39191 14.4805L1.13352 16.7383C-0.113516 17.9853 -0.113516 20.0074 1.13352 21.2544L3.39159 23.5125L5.64966 25.7705L7.90773 28.0286L10.1658 30.2867L12.4239 32.5448C13.6709 33.7918 15.693 33.7918 16.94 32.5448L19.1981 30.2867L21.4562 28.0286L23.7142 25.7705L23.7145 25.7709Z" fill="#425563"/>
</g>
</g>
<defs>
<clipPath id="clip0_218_416">
<rect width="38" height="38" fill="white"/>
</clipPath>
</defs>
</svg>
