<svg viewBox="0 0 38 38" fill="none" xmlns="http://www.w3.org/2000/svg">
<g id="Frame">
<g id="Clip path group">
<mask id="mask0_218_420" style="mask-type:luminance" maskUnits="userSpaceOnUse" x="0" y="5" width="38" height="29">
<g id="clip0_733_792">
<path id="Vector" d="M38 5.33618H0V33.1385H38V5.33618Z" fill="white"/>
</g>
</mask>
<g mask="url(#mask0_218_420)">
<g id="Group">
<path id="Vector_2" d="M18.5601 33.0975C18.2016 33.0975 17.785 33.0342 17.331 32.8495C15.5169 32.1131 14.0248 29.8203 12.8891 26.0299C8.39026 25.4997 5.00351 23.8884 2.79114 21.2155C-1.00242 16.6308 0.153682 10.6914 0.205208 10.4413C0.211648 10.4091 0.220236 10.3769 0.229897 10.3447C0.851423 8.3395 1.94419 7.01057 3.47922 6.39441C6.14351 5.32634 9.07082 6.92577 9.19319 6.99447C9.205 7.00091 9.21676 7.00735 9.22858 7.01487C18.8692 12.9006 24.0594 13.5425 26.0699 13.4803C25.5107 11.3119 25.5353 7.96487 28.3585 5.57323C28.6848 5.29628 29.1507 5.25764 29.5178 5.47769C29.885 5.69668 30.0728 6.12498 29.9848 6.54362C29.9687 6.62735 29.5887 8.78713 31.4715 11.7788C32.1188 12.1169 34.3687 13.1571 36.8162 12.7428C37.1844 12.6795 37.5569 12.8287 37.7812 13.126C38.0056 13.4234 38.0464 13.8227 37.8864 14.1597C37.0373 15.9448 34.2711 18.7906 29.6617 17.54C28.7299 19.2178 26.1193 23.065 20.7081 25.6198C21.291 26.8962 22.0864 29.1247 21.5282 30.8722C21.248 31.7471 20.6576 32.418 19.8171 32.813C19.6486 32.9 19.1934 33.0986 18.5601 33.0986V33.0975ZM15.0403 26.1974C16.1856 29.6592 17.3739 30.6737 18.0212 30.9677C18.4839 31.1782 18.7995 31.0762 18.8811 31.0429C18.9122 31.0214 18.9068 31.0289 18.954 31.0075C19.3029 30.8465 19.509 30.6168 19.6218 30.2636C20.0618 28.8885 18.91 26.396 18.4721 25.6306C18.3293 25.3816 18.3003 25.0821 18.3937 24.8105C18.486 24.5389 18.6911 24.3199 18.9562 24.2094C25.8595 21.3368 28.2082 15.9932 28.2318 15.9395C28.4412 15.45 28.9972 15.2074 29.4964 15.3899C31.465 16.1081 33.1579 15.9878 34.5276 15.0324C34.6318 14.9595 34.7305 14.8843 34.8239 14.8081C32.2648 14.5934 30.3508 13.4523 30.2478 13.3901C30.12 13.3128 30.0116 13.2076 29.93 13.083C28.9436 11.5792 28.4337 10.2062 28.1803 9.08447C27.226 11.3848 28.2652 13.7615 28.3231 13.8903C28.4358 14.1415 28.4412 14.4303 28.336 14.6857C28.2308 14.9412 28.0258 15.1419 27.7681 15.2396C27.2067 15.4532 21.8889 17.0838 8.20988 8.73882C8.03063 8.64436 5.92131 7.56876 4.21775 8.25792C3.28599 8.6347 2.5947 9.51815 2.15995 10.8846C2.07193 11.3892 1.31193 16.3045 4.34764 19.9563C6.31202 22.3201 9.45509 23.7102 13.7135 24.1063C13.7424 24.1074 13.7725 24.1106 13.8015 24.1138C14.7547 24.1997 15.7637 24.2351 16.8276 24.2211C16.8318 24.2211 16.8361 24.2211 16.8415 24.2211C17.3879 24.2211 17.8344 24.6602 17.842 25.2087C17.8495 25.7616 17.4072 26.2156 16.8544 26.2231C16.2339 26.2317 15.6307 26.2231 15.0435 26.1995L15.0403 26.1974Z" fill="url(#paint0_linear_218_420)"/>
<path id="Vector_3" d="M7.08289 30.7994C6.76731 30.7994 6.53545 30.7544 6.4442 30.7329C5.52103 30.5332 4.82329 30.004 4.42505 29.2011C3.27538 26.8835 5.0938 22.886 5.30527 22.4373C5.54035 21.9371 6.13717 21.7224 6.6374 21.9586C7.13764 22.1947 7.35127 22.7905 7.1162 23.2907C6.43131 24.7495 5.70137 27.271 6.21875 28.3123C6.30894 28.4926 6.45601 28.6891 6.87466 28.7781C6.88862 28.7813 6.90364 28.7846 6.91759 28.7878C6.91759 28.7878 7.41569 28.8855 7.85685 28.5152C8.2562 28.1792 8.91206 27.2045 8.81439 24.4489C8.79503 23.8961 9.22657 23.4324 9.77941 23.4131C10.3322 23.3958 10.7959 23.8252 10.8153 24.3781C10.914 27.1712 10.3333 29.0948 9.08704 30.0952C8.36676 30.6739 7.60996 30.8005 7.08396 30.8005L7.08289 30.7994Z" fill="url(#paint1_linear_218_420)"/>
<path id="Vector_4" d="M15.1414 25.8892C14.7969 25.8892 14.4609 25.711 14.2752 25.3912C10.6813 19.2038 0.71218 14.6309 0.611278 14.5848C0.107833 14.3562 -0.115444 13.7636 0.1132 13.2602C0.340771 12.7567 0.934385 12.5334 1.43783 12.761C1.87043 12.9575 12.0886 17.6398 16.0066 24.3854C16.2847 24.863 16.1215 25.476 15.6438 25.754C15.486 25.8463 15.3121 25.8892 15.1425 25.8892H15.1414Z" fill="url(#paint2_linear_218_420)"/>
<path id="Vector_5" d="M10.7779 15.3062C11.3488 15.3062 11.8116 14.8434 11.8116 14.2725C11.8116 13.7016 11.3488 13.2388 10.7779 13.2388C10.207 13.2388 9.74414 13.7016 9.74414 14.2725C9.74414 14.8434 10.207 15.3062 10.7779 15.3062Z" fill="url(#paint3_linear_218_420)"/>
</g>
</g>
</g>
</g>
<defs>
<linearGradient id="paint0_linear_218_420" x1="18.9916" y1="5.33569" x2="18.9916" y2="33.0986" gradientUnits="userSpaceOnUse">
<stop stop-color="#59DD56"/>
<stop offset="1" stop-color="#569CDD"/>
</linearGradient>
<linearGradient id="paint1_linear_218_420" x1="7.43645" y1="21.8625" x2="7.43645" y2="30.8005" gradientUnits="userSpaceOnUse">
<stop stop-color="#59DD56"/>
<stop offset="1" stop-color="#569CDD"/>
</linearGradient>
<linearGradient id="paint2_linear_218_420" x1="8.08287" y1="12.6719" x2="8.08287" y2="25.8892" gradientUnits="userSpaceOnUse">
<stop stop-color="#59DD56"/>
<stop offset="1" stop-color="#569CDD"/>
</linearGradient>
<linearGradient id="paint3_linear_218_420" x1="10.7779" y1="13.2388" x2="10.7779" y2="15.3062" gradientUnits="userSpaceOnUse">
<stop stop-color="#59DD56"/>
<stop offset="1" stop-color="#569CDD"/>
</linearGradient>
</defs>
</svg>
