<svg viewBox="0 0 58 61" fill="none" xmlns="http://www.w3.org/2000/svg">
<g id="Artist">
<path id="Body" d="M16.9284 34.1024C20.3258 31.1566 24.6819 29.3877 29.4284 29.3877C34.1748 29.3877 38.5309 31.1566 41.9284 34.1024L45.8458 45.2842L41.9284 56.5752H16.9284L13.5 45.2842L16.9284 34.1024Z" fill="#E6E6E6"/>
<path id="Scarf" d="M29.4283 38.7115C29.4318 41.3346 31.5375 43.4501 34.1069 43.4501V40.4256C34.1069 39.3803 33.773 38.4153 33.2088 37.6323C35.6158 37.2589 37.464 35.1461 37.464 32.6018C37.464 29.7947 35.214 27.5127 32.4461 27.5127H26.4104C23.6426 27.5127 21.3926 29.7947 21.3926 32.6018C21.3926 35.1461 23.2408 37.2589 25.6477 37.6323C25.0836 38.4153 24.7497 39.3803 24.7497 40.4256V43.4501C27.319 43.4501 29.4248 41.3346 29.4283 38.7115Z" fill="#F92F60"/>
<g id="Sleeves">
<path d="M9.78646 50.0127C9.75093 43.6189 12.6115 37.8814 16.929 34.0752V56.5377L9.822 56.5752L9.78646 50.0127Z" fill="#D3D3D3"/>
<path d="M41.929 56.5752V34.0752C46.2861 37.869 49.0718 43.5973 49.0718 50.0017V56.5752H41.929Z" fill="#D3D3D3"/>
</g>
<path id="Palette Main" d="M9.64067 56.5752H26.7952L22.9559 45.5127C21.8197 42.2493 18.9791 40.0038 15.7364 39.7287C15.5137 39.7098 15.1166 39.7713 14.8923 39.7955C10.0271 40.3229 5.90853 45.7752 7.89067 51.5314L9.64067 56.5752Z" fill="#FFCE7C"/>
<path id="Palette" d="M15.8308 39.7377C15.5808 39.7189 15.313 39.7002 15.063 39.7002C9.24153 39.7002 5.18796 45.7752 7.1701 51.5314L8.9201 56.5752H10.5094L8.75939 51.5314C6.86653 46.0564 10.4558 40.2627 15.8308 39.7377Z" fill="#E19747"/>
<path id="Red" d="M15.5717 47.65C16.7946 47.65 17.786 46.6091 17.786 45.325C17.786 44.0409 16.7946 43 15.5717 43C14.3488 43 13.3574 44.0409 13.3574 45.325C13.3574 46.6091 14.3488 47.65 15.5717 47.65Z" fill="#F92F60"/>
<path id="Blue" d="M20.9291 53.275C22.152 53.275 23.1434 52.2341 23.1434 50.95C23.1434 49.6659 22.152 48.625 20.9291 48.625C19.7062 48.625 18.7148 49.6659 18.7148 50.95C18.7148 52.2341 19.7062 53.275 20.9291 53.275Z" fill="#5092FF"/>
<path id="Green" d="M13.7866 54.9439C15.0095 54.9439 16.0008 53.903 16.0008 52.6189C16.0008 51.3349 15.0095 50.2939 13.7866 50.2939C12.5636 50.2939 11.5723 51.3349 11.5723 52.6189C11.5723 53.903 12.5636 54.9439 13.7866 54.9439Z" fill="#86D72F"/>
<path id="Thumb" d="M49.9644 43.6382C50.9466 43.6382 51.7501 44.4717 51.7501 45.4904V49.7319H48.1787V45.4904C48.1787 44.4717 48.9644 43.6382 49.9644 43.6382Z" fill="#F59F00"/>
<path id="Handle" d="M45.8788 39.2314C45.4479 41.7904 45.3825 44.4141 45.6934 47.0127L46.6755 55.2064C46.747 55.7314 47.1755 56.1439 47.6755 56.1439C48.1934 56.1439 48.622 55.7502 48.6755 55.2064L49.6577 47.0127C49.9569 44.4113 49.8951 41.7931 49.467 39.2314L47.6415 38.4917L45.8788 39.2314Z" fill="#8C5543"/>
<path id="Paint Brush Metal" d="M49.4764 39.2312C49.2621 37.975 49.0897 36.7187 48.7147 35.5H46.5718C46.179 36.7187 46.0844 37.975 45.8701 39.2312H49.4764Z" fill="#E6E6E6"/>
<path id="Paint Brush" d="M44.9357 31.7314L46.1903 31.3506C46.726 31.3506 47.411 32.1724 47.411 32.7349C47.411 33.5599 47.6367 33.6943 48.4225 33.6943C49.1769 33.7123 49.8514 33.6952 49.9301 32.9333C49.9348 33.0009 49.9372 33.0693 49.9372 33.1377C49.9372 34.694 48.7408 35.9502 47.2587 35.9502C45.7765 35.9502 44.5801 34.694 44.5801 33.1377C44.5801 32.669 44.6872 32.2377 44.8836 31.844C44.9007 31.8061 44.9181 31.7686 44.9357 31.7314Z" fill="#F3AD61"/>
<path id="Paint" d="M50.2411 28.5814C50.1339 28.4877 50.0089 28.4502 49.8839 28.4502C47.7232 28.6002 45.9018 29.6689 44.9375 31.7314H46.1339C46.6696 31.7314 47.0982 32.1814 47.0982 32.7439C47.0982 33.5689 47.7054 34.2814 48.4911 34.2814C49.2768 34.3002 49.9018 33.6439 49.9375 32.8377C49.9375 32.7439 49.9196 32.6502 49.9018 32.5564V32.5377C49.6339 31.3189 49.8125 30.2877 50.3661 29.2564C50.4732 29.0314 50.4196 28.7502 50.2411 28.5814Z" fill="#5092FF"/>
<path id="Hand" d="M44.9681 46.7126C44.3012 46.7126 43.7319 47.3126 43.7157 48.0813C43.6994 48.5876 43.9271 49.0376 44.2687 49.3001C43.9434 49.5439 43.7157 49.9751 43.7157 50.4626C43.7157 50.9501 43.9271 51.3813 44.2687 51.6251C43.9434 51.8688 43.7157 52.3001 43.7157 52.7876C43.7157 53.2751 43.9271 53.7063 44.2687 53.9501C43.9271 54.2126 43.7157 54.6626 43.7157 55.1688C43.7319 55.9376 44.3012 56.5376 44.9681 56.5376H50.3355C51.1162 56.5376 51.7506 55.8063 51.7506 54.9063V48.3251C51.7506 47.4251 51.1162 46.6938 50.3355 46.6938H44.9681V46.7126Z" fill="#FFC83D"/>
<path id="Neck" d="M29.4288 35.0127C27.4646 35.0127 25.8574 33.311 25.8574 31.2312V27.5442C25.8574 25.4644 27.4646 23.7627 29.4288 23.7627C31.3931 23.7627 33.0003 25.4644 33.0003 27.5442V31.2312C33.0003 33.311 31.3931 35.0127 29.4288 35.0127Z" fill="#FCB100"/>
<path id="Hair" d="M38.1922 8.25596C39.1112 8.59346 39.9419 9.26846 40.4721 10.2435C41.3028 11.781 41.1791 13.6372 40.26 15.0247C39.9419 15.5122 39.7651 16.0935 39.7651 16.6747V24.4935C39.7651 26.2372 38.7224 27.7935 37.1671 28.356L33.8267 29.5747V15.6435C33.5792 15.3622 33.3495 15.0622 33.155 14.706C32.8546 14.1622 32.6955 13.581 32.6248 12.981C32.4657 12.9997 32.3067 13.0185 32.1299 13.0185C31.0872 13.0185 30.1504 12.606 29.4081 11.9497C28.6835 12.6247 27.7291 13.0185 26.6863 13.0185C26.5273 13.0185 26.3505 12.9997 26.1914 12.981C26.1384 13.5622 25.9617 14.1622 25.6612 14.706C25.4668 15.0622 25.2547 15.381 24.9896 15.6435V29.556L21.6492 28.3372C20.0939 27.756 19.0511 26.2185 19.0511 24.4747V16.656C19.0511 16.0747 18.8744 15.4935 18.5739 15.006C17.7079 13.6747 17.5488 11.8747 18.3088 10.3747C18.8214 9.34346 19.6697 8.61221 20.6418 8.25596L35.7531 6.23096C36.301 7.18721 37.1847 7.89971 38.1922 8.25596Z" fill="#F1A11E"/>
<g id="Ears">
<path d="M23.6249 20.2471C23.6249 21.9298 22.3257 23.2939 20.7231 23.2939C19.1205 23.2939 17.8213 21.9298 17.8213 20.2471C17.8213 18.5643 19.1205 17.2002 20.7231 17.2002C22.3257 17.2002 23.6249 18.5643 23.6249 20.2471Z" fill="#FDBB11"/>
<path d="M41.482 20.2471C41.482 21.9298 40.1828 23.2939 38.5802 23.2939C36.9776 23.2939 35.6784 21.9298 35.6784 20.2471C35.6784 18.5643 36.9776 17.2002 38.5802 17.2002C40.1828 17.2002 41.482 18.5643 41.482 20.2471Z" fill="#FDBB11"/>
</g>
<path id="Head" d="M31.5246 5.9502H27.3336C22.6397 5.9502 19.231 9.78891 19.6408 14.8319L20.3486 25.7271C20.8515 29.4341 23.9808 32.2002 27.6689 32.2002H29.4384H31.208C34.9147 32.2002 38.0253 29.4341 38.5282 25.7271L39.1988 14.8319C39.7203 9.95826 36.2185 5.9502 31.5246 5.9502Z" fill="#FFC83D"/>
<g id="Eyes">
<path d="M22.2991 19.6002C22.567 18.4377 23.567 17.5752 24.7634 17.5752C26.0134 17.5752 27.0491 18.4939 27.2634 19.7314C27.317 20.0127 27.1205 20.2564 26.8527 20.2564H22.7813C22.4598 20.2564 22.2277 19.9189 22.2991 19.6002Z" fill="white"/>
<path d="M35.9598 19.6002C35.692 18.4377 34.692 17.5752 33.4955 17.5752C32.2634 17.5752 31.2277 18.4939 30.9955 19.7314C30.942 20.0127 31.1384 20.2564 31.4063 20.2564H35.4777C35.7991 20.2564 36.0313 19.9377 35.9598 19.6002Z" fill="white"/>
</g>
<g id="Iris">
<path d="M23.5137 19.8063C23.5137 18.8688 24.2458 18.1001 25.1387 18.1001C26.0494 18.1001 26.7815 18.8688 26.7637 19.8063C26.7637 19.9563 26.7458 20.1063 26.7101 20.2563H23.5672C23.5315 20.1063 23.5137 19.9563 23.5137 19.8063Z" fill="#7D4533"/>
<path d="M34.7458 19.8063C34.7458 18.8688 34.0136 18.1001 33.1208 18.1001C32.2279 18.1001 31.4958 18.8688 31.4958 19.8063C31.4958 19.9563 31.5136 20.1063 31.5493 20.2563H34.6922C34.7279 20.1063 34.7458 19.9563 34.7458 19.8063Z" fill="#7D4533"/>
</g>
<g id="Pupils">
<path d="M25.1561 18.8315C25.674 18.8315 26.0847 19.2628 26.0847 19.8065C26.0847 19.9753 26.0311 20.1253 25.9775 20.2565H24.3347C24.2633 20.1253 24.2275 19.9753 24.2275 19.8065C24.2275 19.2628 24.6383 18.8315 25.1561 18.8315Z" fill="black"/>
<path d="M33.1205 18.8315C32.6027 18.8315 32.192 19.2628 32.192 19.8065C32.192 19.9753 32.2277 20.1253 32.2991 20.2565H33.942C34.0134 20.1253 34.0491 19.9753 34.0491 19.8065C34.0491 19.2628 33.6384 18.8315 33.1205 18.8315Z" fill="black"/>
</g>
<g id="Eyebrows">
<path d="M22.5418 15.3516C22.3091 15.542 22.2675 15.8945 22.4488 16.1388C22.6297 16.3825 22.9641 16.4266 23.1967 16.2379L23.2011 16.2345C23.2064 16.2304 23.2161 16.223 23.23 16.2128C23.258 16.1925 23.3028 16.1613 23.3632 16.1232C23.4843 16.0469 23.6668 15.9442 23.9012 15.8469C24.3702 15.6524 25.0394 15.483 25.8435 15.5823C26.1365 15.6185 26.4019 15.3984 26.4364 15.0908C26.4709 14.7831 26.2613 14.5044 25.9683 14.4682C24.9509 14.3425 24.1023 14.5574 23.5087 14.8035C23.212 14.9266 22.977 15.0583 22.8135 15.1613C22.7316 15.2128 22.6673 15.2575 22.6217 15.2906L22.5418 15.3516Z" fill="#D37034"/>
<path d="M35.8095 16.1388C35.9908 15.8945 35.9489 15.5417 35.7162 15.3513L35.7129 15.3486L35.7074 15.3442L35.6909 15.3313C35.6775 15.3209 35.6594 15.3072 35.6366 15.2906C35.591 15.2575 35.5267 15.2128 35.4448 15.1613C35.2813 15.0583 35.0464 14.9266 34.7496 14.8035C34.156 14.5574 33.3074 14.3425 32.29 14.4682C31.997 14.5044 31.7874 14.7831 31.8219 15.0908C31.8564 15.3984 32.1218 15.6185 32.4148 15.5823C33.2189 15.483 33.8881 15.6524 34.3571 15.8469C34.5915 15.9442 34.774 16.0469 34.8951 16.1232C34.9556 16.1613 35.0003 16.1925 35.0283 16.2128C35.0422 16.223 35.0519 16.2304 35.0572 16.2345L35.0618 16.238C35.2944 16.4266 35.6286 16.3824 35.8095 16.1388Z" fill="#D37034"/>
</g>
<g id="Shine">
<path d="M24.8703 19.1315C24.8703 19.2972 24.7423 19.4315 24.5845 19.4315C24.4267 19.4315 24.2988 19.2972 24.2988 19.1315C24.2988 18.9659 24.4267 18.8315 24.5845 18.8315C24.7423 18.8315 24.8703 18.9659 24.8703 19.1315Z" fill="white"/>
<path d="M32.906 19.1315C32.906 19.2972 32.7781 19.4315 32.6203 19.4315C32.4625 19.4315 32.3345 19.2972 32.3345 19.1315C32.3345 18.9659 32.4625 18.8315 32.6203 18.8315C32.7781 18.8315 32.906 18.9659 32.906 19.1315Z" fill="white"/>
</g>
<path id="Nose" d="M28.794 19.6653L27.9087 22.9249C27.725 23.5921 28.1593 24.2783 28.7773 24.2783H30.0801C30.6981 24.2783 31.1324 23.5921 30.9487 22.9249L30.0634 19.6653C29.8797 18.941 28.9944 18.941 28.794 19.6653Z" fill="#ED9200"/>
<path id="Mouth" d="M29.4296 26.0237C28.4466 26.0237 27.5182 25.7634 26.7355 25.3028C26.4624 25.1427 26.1893 25.483 26.3532 25.7634C27.0085 26.8646 28.1372 27.6055 29.4296 27.6055C30.7221 27.6055 31.8507 26.8646 32.5061 25.7634C32.6699 25.483 32.3787 25.1627 32.1238 25.3028C31.341 25.7634 30.4126 26.0237 29.4296 26.0237Z" fill="#990839"/>
<path id="Hat" d="M16.9199 11.0502C16.9199 10.2064 17.3306 9.4377 18.0271 9.00645L18.5092 8.70645C23.2592 5.66895 28.7235 4.0752 34.2949 4.0752C38.5092 4.0752 41.9199 7.65645 41.9199 12.0814C41.9199 12.8314 41.3306 13.4502 40.6164 13.4502H19.2056C17.9378 13.4502 16.9199 12.3814 16.9199 11.0502Z" fill="#212121"/>
</g>
</svg>
