<svg viewBox="0 0 35 54" fill="none" xmlns="http://www.w3.org/2000/svg">
<g id="logos:figma" clip-path="url(#clip0_278_1247)">
<path id="Vector" d="M8.75216 53.8244C13.5812 53.8244 17.5004 49.867 17.5004 44.991V36.1577H8.75216C3.92312 36.1577 0.00390625 40.115 0.00390625 44.991C0.00390625 49.867 3.92312 53.8244 8.75216 53.8244Z" fill="#0ACF83"/>
<path id="Vector_2" d="M0.00390625 27.3241C0.00390625 22.4481 3.92312 18.4907 8.75216 18.4907H17.5004V36.1574H8.75216C3.92312 36.1574 0.00390625 32.2001 0.00390625 27.3241Z" fill="#A259FF"/>
<path id="Vector_3" d="M0.00292969 9.65804C0.00292969 4.78204 3.92215 0.824707 8.75118 0.824707H17.4994V18.4914H8.75118C3.92215 18.4914 0.00292969 14.534 0.00292969 9.65804Z" fill="#F24E1E"/>
<path id="Vector_4" d="M17.5 0.824707H26.2482C31.0773 0.824707 34.9965 4.78204 34.9965 9.65804C34.9965 14.534 31.0773 18.4914 26.2482 18.4914H17.5V0.824707Z" fill="#FF7262"/>
<path id="Vector_5" d="M34.9965 27.3241C34.9965 32.2001 31.0773 36.1574 26.2482 36.1574C21.4192 36.1574 17.5 32.2001 17.5 27.3241C17.5 22.4481 21.4192 18.4907 26.2482 18.4907C31.0773 18.4907 34.9965 22.4481 34.9965 27.3241Z" fill="#1ABCFE"/>
</g>
<defs>
<clipPath id="clip0_278_1247">
<rect width="35" height="53" fill="white" transform="translate(0 0.825195)"/>
</clipPath>
</defs>
</svg>
