<svg viewBox="0 0 123 123" fill="none" xmlns="http://www.w3.org/2000/svg">
<g clip-path="url(#clip0_530_811)">
<mask id="mask0_530_811" style="mask-type:luminance" maskUnits="userSpaceOnUse" x="0" y="0" width="123" height="123">
<path d="M0 0.150879H122.516V122.667H0V0.150879Z" fill="white"/>
</mask>
<g mask="url(#mask0_530_811)">
<path d="M120.208 55.9536L66.7144 2.46428C65.9817 1.73103 65.1116 1.14935 64.1539 0.752493C63.1962 0.355633 62.1697 0.151367 61.1331 0.151367C60.0965 0.151367 59.07 0.355633 58.1123 0.752493C57.1546 1.14935 56.2846 1.73103 55.5518 2.46428L44.4478 13.5736L58.5358 27.6616C60.1921 27.0991 61.9727 27.0113 63.6763 27.4081C65.3799 27.8049 66.9385 28.6705 68.1758 29.9069C69.4199 31.1524 70.2884 32.7228 70.682 34.4387C71.0755 36.1545 70.9782 37.9465 70.4011 39.6096L83.9838 53.1883C85.6473 52.6105 87.44 52.5132 89.1564 52.9075C90.8727 53.3018 92.4432 54.1717 93.6878 55.4176C94.5596 56.2893 95.2512 57.3241 95.723 58.4631C96.1948 59.602 96.4377 60.8228 96.4377 62.0556C96.4377 63.2884 96.1948 64.5092 95.723 65.6481C95.2512 66.7871 94.5596 67.822 93.6878 68.6936C91.9252 70.4543 89.5358 71.4433 87.0444 71.4433C84.5531 71.4433 82.1637 70.4543 80.4011 68.6936C79.0918 67.3821 78.1997 65.7126 77.8371 63.8952C77.4746 62.0778 77.6578 60.1938 78.3638 58.4803L65.6971 45.8176V79.1469C67.0341 79.8074 68.1944 80.7768 69.0821 81.975C69.9698 83.1732 70.5592 84.5656 70.8016 86.0369C71.044 87.5083 70.9324 89.0162 70.476 90.4358C70.0196 91.8554 69.2315 93.1459 68.1771 94.2003C67.3054 95.0721 66.2706 95.7637 65.1316 96.2355C63.9927 96.7074 62.7719 96.9502 61.5391 96.9502C60.3063 96.9502 59.0855 96.7074 57.9466 96.2355C56.8076 95.7637 55.7728 95.0721 54.9011 94.2003C54.0291 93.3286 53.3373 92.2937 52.8654 91.1546C52.3934 90.0155 52.1505 88.7946 52.1505 87.5616C52.1505 86.3286 52.3934 85.1077 52.8654 83.9687C53.3373 82.8296 54.0291 81.7946 54.9011 80.923C55.7795 80.0428 56.8236 79.3453 57.9731 78.8709V45.2349C56.8283 44.7634 55.788 44.0703 54.9119 43.1956C54.0357 42.3208 53.3411 41.2815 52.8678 40.1374C52.3945 38.9934 52.1519 37.7671 52.154 36.529C52.156 35.2909 52.4027 34.0654 52.8798 32.9229L38.9891 19.0296L2.30643 55.7029C0.828242 57.184 -0.00195312 59.1911 -0.00195312 61.2836C-0.00195313 63.3761 0.828242 65.3832 2.30643 66.8643L55.8024 120.36C57.2835 121.838 59.2902 122.668 61.3824 122.668C63.4746 122.668 65.4814 121.838 66.9624 120.36L120.208 67.1149C121.686 65.6339 122.516 63.6268 122.516 61.5343C122.516 59.4418 121.686 57.4347 120.208 55.9536Z" fill="#F03C2E"/>
</g>
</g>
<defs>
<clipPath id="clip0_530_811">
<rect width="122.667" height="122.667" fill="white"/>
</clipPath>
</defs>
</svg>
