<svg viewBox="0 0 61 61" fill="none" xmlns="http://www.w3.org/2000/svg">
<g id="vscode-icons:file-type-html">
<path id="Vector" d="M11.3572 51.3271L7.08301 4.0752H54.0477L49.7678 51.3196L30.5368 56.5752L11.3572 51.3271Z" fill="#E44F26"/>
<path id="Vector_2" d="M30.5654 52.5588L46.1062 48.312L49.7622 7.93945H30.5654V52.5588Z" fill="#F1662A"/>
<path id="Vector_3" d="M30.5661 25.4634H22.7862L22.2498 19.529H30.5661V13.7334H15.8242L15.965 15.2896L17.4087 31.259H30.5661V25.4634ZM30.5661 40.514L30.5394 40.5215L23.9922 38.7796L23.5737 34.1578H17.6712L18.4949 43.2553L30.5394 46.5515L30.5661 46.544V40.514Z" fill="#EBEBEB"/>
<path id="Vector_4" d="M30.5449 25.4634V31.259H37.7846L37.1036 38.7759L30.5449 40.5197V46.5497L42.599 43.2553L42.6865 42.2765L44.0675 27.0197L44.212 25.4634H42.6275H30.5449ZM30.5449 13.7334V19.529H44.7465L44.8645 18.2278L45.1327 15.2896L45.2735 13.7334H30.5449Z" fill="white"/>
</g>
</svg>
