<svg viewBox="0 0 60 61" fill="none" xmlns="http://www.w3.org/2000/svg">
<g id="Mobile phone">
<g id="Rectangle 561">
<rect x="12.1064" y="4.14014" width="36.77" height="52.3535" rx="0.765707" fill="url(#paint0_linear_278_1268)"/>
<rect x="12.1064" y="4.14014" width="36.77" height="52.3535" rx="0.765707" fill="url(#paint1_linear_278_1268)"/>
</g>
<g id="Rectangle 562" filter="url(#filter0_ii_278_1268)">
<path d="M17.9561 17.3501C17.9561 16.7288 18.4515 16.2251 19.0626 16.2251H22.9586C23.5698 16.2251 24.0652 16.7288 24.0652 17.3501V21.311C24.0652 21.9324 23.5698 22.436 22.9586 22.436H19.0626C18.4515 22.436 17.9561 21.9324 17.9561 21.311V17.3501Z" fill="#FF9544"/>
<path d="M17.9561 17.3501C17.9561 16.7288 18.4515 16.2251 19.0626 16.2251H22.9586C23.5698 16.2251 24.0652 16.7288 24.0652 17.3501V21.311C24.0652 21.9324 23.5698 22.436 22.9586 22.436H19.0626C18.4515 22.436 17.9561 21.9324 17.9561 21.311V17.3501Z" fill="url(#paint2_linear_278_1268)"/>
</g>
<g id="Rectangle 563" filter="url(#filter1_ii_278_1268)">
<path d="M27.4375 17.3501C27.4375 16.7288 27.9329 16.2251 28.5441 16.2251H32.4401C33.0512 16.2251 33.5466 16.7288 33.5466 17.3501V21.311C33.5466 21.9324 33.0512 22.436 32.4401 22.436H28.5441C27.9329 22.436 27.4375 21.9324 27.4375 21.311V17.3501Z" fill="#38C6FF"/>
</g>
<g id="Rectangle 564" filter="url(#filter2_ii_278_1268)">
<path d="M36.918 17.3501C36.918 16.7288 37.4134 16.2251 38.0245 16.2251H41.9205C42.5317 16.2251 43.0271 16.7288 43.0271 17.3501V21.311C43.0271 21.9324 42.5317 22.436 41.9205 22.436H38.0245C37.4134 22.436 36.918 21.9324 36.918 21.311V17.3501Z" fill="#FFEC58"/>
</g>
<g id="Rectangle 565" filter="url(#filter3_ii_278_1268)">
<path d="M17.9561 28.3364C17.9561 27.7151 18.4515 27.2114 19.0626 27.2114H22.9586C23.5698 27.2114 24.0652 27.7151 24.0652 28.3364V32.2974C24.0652 32.9187 23.5698 33.4224 22.9586 33.4224H19.0626C18.4515 33.4224 17.9561 32.9187 17.9561 32.2974V28.3364Z" fill="#38C6FF"/>
</g>
<g id="Rectangle 568" filter="url(#filter4_ii_278_1268)">
<path d="M17.9561 39.3228C17.9561 38.7014 18.4515 38.1978 19.0626 38.1978H22.9586C23.5698 38.1978 24.0652 38.7014 24.0652 39.3228V43.2837C24.0652 43.905 23.5698 44.4087 22.9586 44.4087H19.0626C18.4515 44.4087 17.9561 43.905 17.9561 43.2837V39.3228Z" fill="#FF9544"/>
<path d="M17.9561 39.3228C17.9561 38.7014 18.4515 38.1978 19.0626 38.1978H22.9586C23.5698 38.1978 24.0652 38.7014 24.0652 39.3228V43.2837C24.0652 43.905 23.5698 44.4087 22.9586 44.4087H19.0626C18.4515 44.4087 17.9561 43.905 17.9561 43.2837V39.3228Z" fill="url(#paint3_linear_278_1268)"/>
</g>
<g id="Rectangle 566" filter="url(#filter5_ii_278_1268)">
<path d="M27.4375 28.3364C27.4375 27.7151 27.9329 27.2114 28.5441 27.2114H32.4401C33.0512 27.2114 33.5466 27.7151 33.5466 28.3364V32.2974C33.5466 32.9187 33.0512 33.4224 32.4401 33.4224H28.5441C27.9329 33.4224 27.4375 32.9187 27.4375 32.2974V28.3364Z" fill="#FFEC58"/>
</g>
<g id="Rectangle 569" filter="url(#filter6_ii_278_1268)">
<path d="M27.4375 39.3228C27.4375 38.7014 27.9329 38.1978 28.5441 38.1978H32.4401C33.0512 38.1978 33.5466 38.7014 33.5466 39.3228V43.2837C33.5466 43.905 33.0512 44.4087 32.4401 44.4087H28.5441C27.9329 44.4087 27.4375 43.905 27.4375 43.2837V39.3228Z" fill="#38C6FF"/>
</g>
<g id="Rectangle 567" filter="url(#filter7_ii_278_1268)">
<path d="M36.918 28.3364C36.918 27.7151 37.4134 27.2114 38.0245 27.2114H41.9205C42.5317 27.2114 43.0271 27.7151 43.0271 28.3364V32.2974C43.0271 32.9187 42.5317 33.4224 41.9205 33.4224H38.0245C37.4134 33.4224 36.918 32.9187 36.918 32.2974V28.3364Z" fill="#FF9544"/>
<path d="M36.918 28.3364C36.918 27.7151 37.4134 27.2114 38.0245 27.2114H41.9205C42.5317 27.2114 43.0271 27.7151 43.0271 28.3364V32.2974C43.0271 32.9187 42.5317 33.4224 41.9205 33.4224H38.0245C37.4134 33.4224 36.918 32.9187 36.918 32.2974V28.3364Z" fill="url(#paint4_linear_278_1268)"/>
</g>
<g id="Rectangle 570" filter="url(#filter8_ii_278_1268)">
<path d="M36.918 39.3228C36.918 38.7014 37.4134 38.1978 38.0245 38.1978H41.9205C42.5317 38.1978 43.0271 38.7014 43.0271 39.3228V43.2837C43.0271 43.905 42.5317 44.4087 41.9205 44.4087H38.0245C37.4134 44.4087 36.918 43.905 36.918 43.2837V39.3228Z" fill="#FFEC58"/>
</g>
<g id="Rectangle 571" filter="url(#filter9_f_278_1268)">
<rect x="44.6689" y="10.8198" width="2.82403" height="40.957" fill="url(#paint5_linear_278_1268)"/>
</g>
<g id="Intersect" filter="url(#filter10_i_278_1268)">
<path d="M48.8764 11.8745H12.1064V9.01515C12.1064 6.32275 14.2533 4.14014 16.9015 4.14014H44.0813C46.7296 4.14014 48.8764 6.32275 48.8764 9.01515V11.8745Z" fill="url(#paint6_linear_278_1268)"/>
<path d="M48.8764 11.8745H12.1064V9.01515C12.1064 6.32275 14.2533 4.14014 16.9015 4.14014H44.0813C46.7296 4.14014 48.8764 6.32275 48.8764 9.01515V11.8745Z" fill="url(#paint7_linear_278_1268)"/>
<path d="M48.8764 11.8745H12.1064V9.01515C12.1064 6.32275 14.2533 4.14014 16.9015 4.14014H44.0813C46.7296 4.14014 48.8764 6.32275 48.8764 9.01515V11.8745Z" fill="url(#paint8_linear_278_1268)"/>
<path d="M48.8764 11.8745H12.1064V9.01515C12.1064 6.32275 14.2533 4.14014 16.9015 4.14014H44.0813C46.7296 4.14014 48.8764 6.32275 48.8764 9.01515V11.8745Z" fill="url(#paint9_linear_278_1268)"/>
<path d="M48.8764 11.8745H12.1064V9.01515C12.1064 6.32275 14.2533 4.14014 16.9015 4.14014H44.0813C46.7296 4.14014 48.8764 6.32275 48.8764 9.01515V11.8745Z" fill="url(#paint10_radial_278_1268)"/>
</g>
<g id="Intersect_2">
<path d="M48.8764 48.8472V51.6186C48.8764 54.311 46.7296 56.4937 44.0813 56.4937H16.9015C14.2533 56.4937 12.1064 54.311 12.1064 51.6186V48.8472H48.8764Z" fill="url(#paint11_linear_278_1268)"/>
<path d="M48.8764 48.8472V51.6186C48.8764 54.311 46.7296 56.4937 44.0813 56.4937H16.9015C14.2533 56.4937 12.1064 54.311 12.1064 51.6186V48.8472H48.8764Z" fill="url(#paint12_linear_278_1268)"/>
<path d="M48.8764 48.8472V51.6186C48.8764 54.311 46.7296 56.4937 44.0813 56.4937H16.9015C14.2533 56.4937 12.1064 54.311 12.1064 51.6186V48.8472H48.8764Z" fill="url(#paint13_radial_278_1268)"/>
<path d="M48.8764 48.8472V51.6186C48.8764 54.311 46.7296 56.4937 44.0813 56.4937H16.9015C14.2533 56.4937 12.1064 54.311 12.1064 51.6186V48.8472H48.8764Z" fill="url(#paint14_linear_278_1268)"/>
</g>
</g>
<defs>
<filter id="filter0_ii_278_1268" x="17.8677" y="16.1367" width="6.28608" height="6.38764" filterUnits="userSpaceOnUse" color-interpolation-filters="sRGB">
<feFlood flood-opacity="0" result="BackgroundImageFix"/>
<feBlend mode="normal" in="SourceGraphic" in2="BackgroundImageFix" result="shape"/>
<feColorMatrix in="SourceAlpha" type="matrix" values="0 0 0 0 0 0 0 0 0 0 0 0 0 0 0 0 0 0 127 0" result="hardAlpha"/>
<feOffset dx="-0.0883508" dy="-0.0883508"/>
<feGaussianBlur stdDeviation="0.0589005"/>
<feComposite in2="hardAlpha" operator="arithmetic" k2="-1" k3="1"/>
<feColorMatrix type="matrix" values="0 0 0 0 0.913725 0 0 0 0 0.384314 0 0 0 0 0.129412 0 0 0 1 0"/>
<feBlend mode="normal" in2="shape" result="effect1_innerShadow_278_1268"/>
<feColorMatrix in="SourceAlpha" type="matrix" values="0 0 0 0 0 0 0 0 0 0 0 0 0 0 0 0 0 0 127 0" result="hardAlpha"/>
<feOffset dx="0.0883508" dy="0.0883508"/>
<feGaussianBlur stdDeviation="0.0589005"/>
<feComposite in2="hardAlpha" operator="arithmetic" k2="-1" k3="1"/>
<feColorMatrix type="matrix" values="0 0 0 0 1 0 0 0 0 0.498039 0 0 0 0 0.160784 0 0 0 1 0"/>
<feBlend mode="normal" in2="effect1_innerShadow_278_1268" result="effect2_innerShadow_278_1268"/>
</filter>
<filter id="filter1_ii_278_1268" x="27.3491" y="16.1367" width="6.28608" height="6.38764" filterUnits="userSpaceOnUse" color-interpolation-filters="sRGB">
<feFlood flood-opacity="0" result="BackgroundImageFix"/>
<feBlend mode="normal" in="SourceGraphic" in2="BackgroundImageFix" result="shape"/>
<feColorMatrix in="SourceAlpha" type="matrix" values="0 0 0 0 0 0 0 0 0 0 0 0 0 0 0 0 0 0 127 0" result="hardAlpha"/>
<feOffset dx="-0.0883508" dy="-0.0883508"/>
<feGaussianBlur stdDeviation="0.0736257"/>
<feComposite in2="hardAlpha" operator="arithmetic" k2="-1" k3="1"/>
<feColorMatrix type="matrix" values="0 0 0 0 0.0980392 0 0 0 0 0.572549 0 0 0 0 0.866667 0 0 0 1 0"/>
<feBlend mode="normal" in2="shape" result="effect1_innerShadow_278_1268"/>
<feColorMatrix in="SourceAlpha" type="matrix" values="0 0 0 0 0 0 0 0 0 0 0 0 0 0 0 0 0 0 127 0" result="hardAlpha"/>
<feOffset dx="0.0883508" dy="0.0883508"/>
<feGaussianBlur stdDeviation="0.0589005"/>
<feComposite in2="hardAlpha" operator="arithmetic" k2="-1" k3="1"/>
<feColorMatrix type="matrix" values="0 0 0 0 0.0745098 0 0 0 0 0.709804 0 0 0 0 1 0 0 0 1 0"/>
<feBlend mode="normal" in2="effect1_innerShadow_278_1268" result="effect2_innerShadow_278_1268"/>
</filter>
<filter id="filter2_ii_278_1268" x="36.8296" y="16.1367" width="6.28608" height="6.38764" filterUnits="userSpaceOnUse" color-interpolation-filters="sRGB">
<feFlood flood-opacity="0" result="BackgroundImageFix"/>
<feBlend mode="normal" in="SourceGraphic" in2="BackgroundImageFix" result="shape"/>
<feColorMatrix in="SourceAlpha" type="matrix" values="0 0 0 0 0 0 0 0 0 0 0 0 0 0 0 0 0 0 127 0" result="hardAlpha"/>
<feOffset dx="-0.0883508" dy="-0.0883508"/>
<feGaussianBlur stdDeviation="0.0736257"/>
<feComposite in2="hardAlpha" operator="arithmetic" k2="-1" k3="1"/>
<feColorMatrix type="matrix" values="0 0 0 0 0.858824 0 0 0 0 0.752941 0 0 0 0 0.188235 0 0 0 1 0"/>
<feBlend mode="normal" in2="shape" result="effect1_innerShadow_278_1268"/>
<feColorMatrix in="SourceAlpha" type="matrix" values="0 0 0 0 0 0 0 0 0 0 0 0 0 0 0 0 0 0 127 0" result="hardAlpha"/>
<feOffset dx="0.0883508" dy="0.0883508"/>
<feGaussianBlur stdDeviation="0.0589005"/>
<feComposite in2="hardAlpha" operator="arithmetic" k2="-1" k3="1"/>
<feColorMatrix type="matrix" values="0 0 0 0 0.968627 0 0 0 0 0.858824 0 0 0 0 0.223529 0 0 0 1 0"/>
<feBlend mode="normal" in2="effect1_innerShadow_278_1268" result="effect2_innerShadow_278_1268"/>
</filter>
<filter id="filter3_ii_278_1268" x="17.8677" y="27.1231" width="6.28608" height="6.38764" filterUnits="userSpaceOnUse" color-interpolation-filters="sRGB">
<feFlood flood-opacity="0" result="BackgroundImageFix"/>
<feBlend mode="normal" in="SourceGraphic" in2="BackgroundImageFix" result="shape"/>
<feColorMatrix in="SourceAlpha" type="matrix" values="0 0 0 0 0 0 0 0 0 0 0 0 0 0 0 0 0 0 127 0" result="hardAlpha"/>
<feOffset dx="-0.0883508" dy="-0.0883508"/>
<feGaussianBlur stdDeviation="0.0736257"/>
<feComposite in2="hardAlpha" operator="arithmetic" k2="-1" k3="1"/>
<feColorMatrix type="matrix" values="0 0 0 0 0.0980392 0 0 0 0 0.572549 0 0 0 0 0.866667 0 0 0 1 0"/>
<feBlend mode="normal" in2="shape" result="effect1_innerShadow_278_1268"/>
<feColorMatrix in="SourceAlpha" type="matrix" values="0 0 0 0 0 0 0 0 0 0 0 0 0 0 0 0 0 0 127 0" result="hardAlpha"/>
<feOffset dx="0.0883508" dy="0.0883508"/>
<feGaussianBlur stdDeviation="0.0589005"/>
<feComposite in2="hardAlpha" operator="arithmetic" k2="-1" k3="1"/>
<feColorMatrix type="matrix" values="0 0 0 0 0.0745098 0 0 0 0 0.709804 0 0 0 0 1 0 0 0 1 0"/>
<feBlend mode="normal" in2="effect1_innerShadow_278_1268" result="effect2_innerShadow_278_1268"/>
</filter>
<filter id="filter4_ii_278_1268" x="17.8677" y="38.1094" width="6.28608" height="6.38764" filterUnits="userSpaceOnUse" color-interpolation-filters="sRGB">
<feFlood flood-opacity="0" result="BackgroundImageFix"/>
<feBlend mode="normal" in="SourceGraphic" in2="BackgroundImageFix" result="shape"/>
<feColorMatrix in="SourceAlpha" type="matrix" values="0 0 0 0 0 0 0 0 0 0 0 0 0 0 0 0 0 0 127 0" result="hardAlpha"/>
<feOffset dx="-0.0883508" dy="-0.0883508"/>
<feGaussianBlur stdDeviation="0.0589005"/>
<feComposite in2="hardAlpha" operator="arithmetic" k2="-1" k3="1"/>
<feColorMatrix type="matrix" values="0 0 0 0 0.913725 0 0 0 0 0.384314 0 0 0 0 0.129412 0 0 0 1 0"/>
<feBlend mode="normal" in2="shape" result="effect1_innerShadow_278_1268"/>
<feColorMatrix in="SourceAlpha" type="matrix" values="0 0 0 0 0 0 0 0 0 0 0 0 0 0 0 0 0 0 127 0" result="hardAlpha"/>
<feOffset dx="0.0883508" dy="0.0883508"/>
<feGaussianBlur stdDeviation="0.0589005"/>
<feComposite in2="hardAlpha" operator="arithmetic" k2="-1" k3="1"/>
<feColorMatrix type="matrix" values="0 0 0 0 1 0 0 0 0 0.498039 0 0 0 0 0.160784 0 0 0 1 0"/>
<feBlend mode="normal" in2="effect1_innerShadow_278_1268" result="effect2_innerShadow_278_1268"/>
</filter>
<filter id="filter5_ii_278_1268" x="27.3491" y="27.1231" width="6.28608" height="6.38764" filterUnits="userSpaceOnUse" color-interpolation-filters="sRGB">
<feFlood flood-opacity="0" result="BackgroundImageFix"/>
<feBlend mode="normal" in="SourceGraphic" in2="BackgroundImageFix" result="shape"/>
<feColorMatrix in="SourceAlpha" type="matrix" values="0 0 0 0 0 0 0 0 0 0 0 0 0 0 0 0 0 0 127 0" result="hardAlpha"/>
<feOffset dx="-0.0883508" dy="-0.0883508"/>
<feGaussianBlur stdDeviation="0.0736257"/>
<feComposite in2="hardAlpha" operator="arithmetic" k2="-1" k3="1"/>
<feColorMatrix type="matrix" values="0 0 0 0 0.858824 0 0 0 0 0.752941 0 0 0 0 0.188235 0 0 0 1 0"/>
<feBlend mode="normal" in2="shape" result="effect1_innerShadow_278_1268"/>
<feColorMatrix in="SourceAlpha" type="matrix" values="0 0 0 0 0 0 0 0 0 0 0 0 0 0 0 0 0 0 127 0" result="hardAlpha"/>
<feOffset dx="0.0883508" dy="0.0883508"/>
<feGaussianBlur stdDeviation="0.0589005"/>
<feComposite in2="hardAlpha" operator="arithmetic" k2="-1" k3="1"/>
<feColorMatrix type="matrix" values="0 0 0 0 0.968627 0 0 0 0 0.858824 0 0 0 0 0.223529 0 0 0 1 0"/>
<feBlend mode="normal" in2="effect1_innerShadow_278_1268" result="effect2_innerShadow_278_1268"/>
</filter>
<filter id="filter6_ii_278_1268" x="27.3491" y="38.1094" width="6.28608" height="6.38764" filterUnits="userSpaceOnUse" color-interpolation-filters="sRGB">
<feFlood flood-opacity="0" result="BackgroundImageFix"/>
<feBlend mode="normal" in="SourceGraphic" in2="BackgroundImageFix" result="shape"/>
<feColorMatrix in="SourceAlpha" type="matrix" values="0 0 0 0 0 0 0 0 0 0 0 0 0 0 0 0 0 0 127 0" result="hardAlpha"/>
<feOffset dx="-0.0883508" dy="-0.0883508"/>
<feGaussianBlur stdDeviation="0.0736257"/>
<feComposite in2="hardAlpha" operator="arithmetic" k2="-1" k3="1"/>
<feColorMatrix type="matrix" values="0 0 0 0 0.0980392 0 0 0 0 0.572549 0 0 0 0 0.866667 0 0 0 1 0"/>
<feBlend mode="normal" in2="shape" result="effect1_innerShadow_278_1268"/>
<feColorMatrix in="SourceAlpha" type="matrix" values="0 0 0 0 0 0 0 0 0 0 0 0 0 0 0 0 0 0 127 0" result="hardAlpha"/>
<feOffset dx="0.0883508" dy="0.0883508"/>
<feGaussianBlur stdDeviation="0.0589005"/>
<feComposite in2="hardAlpha" operator="arithmetic" k2="-1" k3="1"/>
<feColorMatrix type="matrix" values="0 0 0 0 0.0745098 0 0 0 0 0.709804 0 0 0 0 1 0 0 0 1 0"/>
<feBlend mode="normal" in2="effect1_innerShadow_278_1268" result="effect2_innerShadow_278_1268"/>
</filter>
<filter id="filter7_ii_278_1268" x="36.8296" y="27.1231" width="6.28608" height="6.38764" filterUnits="userSpaceOnUse" color-interpolation-filters="sRGB">
<feFlood flood-opacity="0" result="BackgroundImageFix"/>
<feBlend mode="normal" in="SourceGraphic" in2="BackgroundImageFix" result="shape"/>
<feColorMatrix in="SourceAlpha" type="matrix" values="0 0 0 0 0 0 0 0 0 0 0 0 0 0 0 0 0 0 127 0" result="hardAlpha"/>
<feOffset dx="-0.0883508" dy="-0.0883508"/>
<feGaussianBlur stdDeviation="0.0589005"/>
<feComposite in2="hardAlpha" operator="arithmetic" k2="-1" k3="1"/>
<feColorMatrix type="matrix" values="0 0 0 0 0.913725 0 0 0 0 0.384314 0 0 0 0 0.129412 0 0 0 1 0"/>
<feBlend mode="normal" in2="shape" result="effect1_innerShadow_278_1268"/>
<feColorMatrix in="SourceAlpha" type="matrix" values="0 0 0 0 0 0 0 0 0 0 0 0 0 0 0 0 0 0 127 0" result="hardAlpha"/>
<feOffset dx="0.0883508" dy="0.0883508"/>
<feGaussianBlur stdDeviation="0.0589005"/>
<feComposite in2="hardAlpha" operator="arithmetic" k2="-1" k3="1"/>
<feColorMatrix type="matrix" values="0 0 0 0 1 0 0 0 0 0.498039 0 0 0 0 0.160784 0 0 0 1 0"/>
<feBlend mode="normal" in2="effect1_innerShadow_278_1268" result="effect2_innerShadow_278_1268"/>
</filter>
<filter id="filter8_ii_278_1268" x="36.8296" y="38.1094" width="6.28608" height="6.38764" filterUnits="userSpaceOnUse" color-interpolation-filters="sRGB">
<feFlood flood-opacity="0" result="BackgroundImageFix"/>
<feBlend mode="normal" in="SourceGraphic" in2="BackgroundImageFix" result="shape"/>
<feColorMatrix in="SourceAlpha" type="matrix" values="0 0 0 0 0 0 0 0 0 0 0 0 0 0 0 0 0 0 127 0" result="hardAlpha"/>
<feOffset dx="-0.0883508" dy="-0.0883508"/>
<feGaussianBlur stdDeviation="0.0736257"/>
<feComposite in2="hardAlpha" operator="arithmetic" k2="-1" k3="1"/>
<feColorMatrix type="matrix" values="0 0 0 0 0.858824 0 0 0 0 0.752941 0 0 0 0 0.188235 0 0 0 1 0"/>
<feBlend mode="normal" in2="shape" result="effect1_innerShadow_278_1268"/>
<feColorMatrix in="SourceAlpha" type="matrix" values="0 0 0 0 0 0 0 0 0 0 0 0 0 0 0 0 0 0 127 0" result="hardAlpha"/>
<feOffset dx="0.0883508" dy="0.0883508"/>
<feGaussianBlur stdDeviation="0.0589005"/>
<feComposite in2="hardAlpha" operator="arithmetic" k2="-1" k3="1"/>
<feColorMatrix type="matrix" values="0 0 0 0 0.968627 0 0 0 0 0.858824 0 0 0 0 0.223529 0 0 0 1 0"/>
<feBlend mode="normal" in2="effect1_innerShadow_278_1268" result="effect2_innerShadow_278_1268"/>
</filter>
<filter id="filter9_f_278_1268" x="44.3744" y="10.5253" width="3.41322" height="41.546" filterUnits="userSpaceOnUse" color-interpolation-filters="sRGB">
<feFlood flood-opacity="0" result="BackgroundImageFix"/>
<feBlend mode="normal" in="SourceGraphic" in2="BackgroundImageFix" result="shape"/>
<feGaussianBlur stdDeviation="0.147251" result="effect1_foregroundBlur_278_1268"/>
</filter>
<filter id="filter10_i_278_1268" x="12.1064" y="4.14014" width="36.7695" height="7.76383" filterUnits="userSpaceOnUse" color-interpolation-filters="sRGB">
<feFlood flood-opacity="0" result="BackgroundImageFix"/>
<feBlend mode="normal" in="SourceGraphic" in2="BackgroundImageFix" result="shape"/>
<feColorMatrix in="SourceAlpha" type="matrix" values="0 0 0 0 0 0 0 0 0 0 0 0 0 0 0 0 0 0 127 0" result="hardAlpha"/>
<feOffset dy="0.0294503"/>
<feGaussianBlur stdDeviation="0.110438"/>
<feComposite in2="hardAlpha" operator="arithmetic" k2="-1" k3="1"/>
<feColorMatrix type="matrix" values="0 0 0 0 0.380392 0 0 0 0 0.407843 0 0 0 0 0.666667 0 0 0 1 0"/>
<feBlend mode="normal" in2="shape" result="effect1_innerShadow_278_1268"/>
</filter>
<linearGradient id="paint0_linear_278_1268" x1="30.4914" y1="14.2769" x2="30.4914" y2="49.0815" gradientUnits="userSpaceOnUse">
<stop stop-color="#62326D"/>
<stop offset="1" stop-color="#434486"/>
</linearGradient>
<linearGradient id="paint1_linear_278_1268" x1="12.1064" y1="41.23" x2="16.3714" y2="41.3434" gradientUnits="userSpaceOnUse">
<stop offset="0.03125" stop-color="#412C4C"/>
<stop offset="1" stop-color="#412C4C" stop-opacity="0"/>
</linearGradient>
<linearGradient id="paint2_linear_278_1268" x1="18.2442" y1="20.8687" x2="20.1749" y2="20.8687" gradientUnits="userSpaceOnUse">
<stop offset="0.333333" stop-color="#FF945C"/>
<stop offset="1" stop-color="#FF945C" stop-opacity="0"/>
</linearGradient>
<linearGradient id="paint3_linear_278_1268" x1="18.2442" y1="42.8413" x2="20.1749" y2="42.8413" gradientUnits="userSpaceOnUse">
<stop offset="0.333333" stop-color="#FF945C"/>
<stop offset="1" stop-color="#FF945C" stop-opacity="0"/>
</linearGradient>
<linearGradient id="paint4_linear_278_1268" x1="37.2061" y1="31.855" x2="39.1368" y2="31.855" gradientUnits="userSpaceOnUse">
<stop offset="0.333333" stop-color="#FF945C"/>
<stop offset="1" stop-color="#FF945C" stop-opacity="0"/>
</linearGradient>
<linearGradient id="paint5_linear_278_1268" x1="46.081" y1="10.8198" x2="46.081" y2="51.7769" gradientUnits="userSpaceOnUse">
<stop stop-color="#674876"/>
<stop offset="1" stop-color="#555187"/>
</linearGradient>
<linearGradient id="paint6_linear_278_1268" x1="30.4914" y1="4.14014" x2="30.4914" y2="11.8745" gradientUnits="userSpaceOnUse">
<stop stop-color="#636AB6"/>
<stop offset="1" stop-color="#6C6EBE"/>
</linearGradient>
<linearGradient id="paint7_linear_278_1268" x1="32.6239" y1="12.1675" x2="32.6239" y2="10.8784" gradientUnits="userSpaceOnUse">
<stop stop-color="#6062B1"/>
<stop offset="1" stop-color="#6062B1" stop-opacity="0"/>
</linearGradient>
<linearGradient id="paint8_linear_278_1268" x1="12.1064" y1="11.8745" x2="18.0427" y2="11.8745" gradientUnits="userSpaceOnUse">
<stop offset="0.135922" stop-color="#484B86"/>
<stop offset="1" stop-color="#5E61AD" stop-opacity="0"/>
</linearGradient>
<linearGradient id="paint9_linear_278_1268" x1="48.8764" y1="11.8745" x2="43.4589" y2="11.8745" gradientUnits="userSpaceOnUse">
<stop offset="0.12766" stop-color="#7277C8"/>
<stop offset="1" stop-color="#7277C8" stop-opacity="0"/>
</linearGradient>
<radialGradient id="paint10_radial_278_1268" cx="0" cy="0" r="1" gradientUnits="userSpaceOnUse" gradientTransform="translate(48.8764 11.3472) rotate(-180) scale(1.2103 5.94726)">
<stop stop-color="#6C6FB4"/>
<stop offset="1" stop-color="#6C6FB4" stop-opacity="0"/>
</radialGradient>
<linearGradient id="paint11_linear_278_1268" x1="30.4914" y1="48.8472" x2="30.4914" y2="56.4937" gradientUnits="userSpaceOnUse">
<stop stop-color="#6B4390"/>
<stop offset="1" stop-color="#76509E"/>
</linearGradient>
<linearGradient id="paint12_linear_278_1268" x1="12.1064" y1="51.1909" x2="16.5442" y2="51.1909" gradientUnits="userSpaceOnUse">
<stop offset="0.164179" stop-color="#4F3D6C"/>
<stop offset="1" stop-color="#6E4693" stop-opacity="0"/>
</linearGradient>
<radialGradient id="paint13_radial_278_1268" cx="0" cy="0" r="1" gradientUnits="userSpaceOnUse" gradientTransform="translate(45.8219 48.2026) rotate(90) scale(5.80078 2.99693)">
<stop stop-color="#6B5094"/>
<stop offset="1" stop-color="#6B5094" stop-opacity="0"/>
</radialGradient>
<linearGradient id="paint14_linear_278_1268" x1="29.9151" y1="48.3198" x2="29.9151" y2="49.4331" gradientUnits="userSpaceOnUse">
<stop offset="0.157895" stop-color="#5E3D7F"/>
<stop offset="1" stop-color="#5E3D7F" stop-opacity="0"/>
</linearGradient>
</defs>
</svg>
