<svg viewBox="0 0 60 61" fill="none" xmlns="http://www.w3.org/2000/svg">
<g id="Spiral notepad">
<g id="Rectangle 1226" filter="url(#filter0_i_477_715)">
<rect x="14.3662" y="8.25195" width="34.1242" height="48.2267" rx="1.48438" fill="url(#paint0_linear_477_715)"/>
<rect x="14.3662" y="8.25195" width="34.1242" height="48.2267" rx="1.48438" fill="url(#paint1_linear_477_715)"/>
</g>
<g id="Rectangle 1231">
<rect x="14.3662" y="8.25195" width="34.1242" height="48.2267" rx="1.48438" fill="url(#paint2_linear_477_715)"/>
<rect x="14.3662" y="8.25195" width="34.1242" height="48.2267" rx="1.48438" fill="url(#paint3_linear_477_715)"/>
</g>
<g id="Subtract" filter="url(#filter1_iiii_477_715)">
<path d="M15.2822 8.25195C13.9878 8.25195 12.9385 9.30126 12.9385 10.5957V54.1349C12.9385 55.4293 13.9878 56.4786 15.2822 56.4786H35.2186C35.7159 56.4786 36.1928 56.2811 36.5444 55.9294L46.5134 45.9605C46.865 45.6089 47.0626 45.132 47.0626 44.6347V10.5957C47.0626 9.30126 46.0133 8.25195 44.7188 8.25195H15.2822Z" fill="url(#paint4_linear_477_715)"/>
</g>
<g id="Union" filter="url(#filter2_f_477_715)">
<path d="M45.3171 45.7498C45.5633 45.7498 46.0192 45.544 46.0892 45.1543C46.0868 45.3595 46.0497 45.5604 45.9805 45.7498C45.8916 45.9933 45.75 46.2175 45.5633 46.4043L36.0157 55.9519C35.845 56.1225 35.6436 56.2552 35.4245 56.3447C35.2833 56.4023 35.1348 56.442 34.9824 56.4622C35.1489 56.4208 35.3282 56.3002 35.3795 56.021C35.3782 55.9924 35.3774 55.9637 35.3774 55.9347V47.5455C35.3774 46.5538 36.1814 45.7498 37.1732 45.7498H45.3171Z" fill="#D4C7E1"/>
</g>
<g id="Union_2" filter="url(#filter3_i_477_715)">
<path d="M46.2556 45.277C46.5126 45.277 46.9887 45.0622 47.0617 44.6553C47.0593 44.8696 47.0205 45.0793 46.9483 45.277C46.8555 45.5313 46.7076 45.7654 46.5126 45.9604L36.5437 55.9294C36.3655 56.1075 36.1552 56.2461 35.9264 56.3395C35.779 56.3997 35.6239 56.4411 35.4648 56.4622C35.6387 56.419 35.8259 56.2931 35.8795 56.0016C35.8781 55.9717 35.8773 55.9417 35.8773 55.9115V47.152C35.8773 46.1165 36.7167 45.277 37.7523 45.277H46.2556Z" fill="url(#paint5_linear_477_715)"/>
<path d="M46.2556 45.277C46.5126 45.277 46.9887 45.0622 47.0617 44.6553C47.0593 44.8696 47.0205 45.0793 46.9483 45.277C46.8555 45.5313 46.7076 45.7654 46.5126 45.9604L36.5437 55.9294C36.3655 56.1075 36.1552 56.2461 35.9264 56.3395C35.779 56.3997 35.6239 56.4411 35.4648 56.4622C35.6387 56.419 35.8259 56.2931 35.8795 56.0016C35.8781 55.9717 35.8773 55.9417 35.8773 55.9115V47.152C35.8773 46.1165 36.7167 45.277 37.7523 45.277H46.2556Z" fill="url(#paint6_linear_477_715)"/>
</g>
<rect id="Rectangle 1227" x="16.6318" y="19.1387" width="28.0518" height="1.81641" rx="0.908203" fill="#A09DA4"/>
<rect id="Rectangle 1228" x="16.6318" y="24.7393" width="28.0518" height="1.81641" rx="0.908203" fill="#A09DA4"/>
<rect id="Rectangle 1229" x="16.6318" y="30.3398" width="28.0518" height="1.81641" rx="0.908203" fill="#A09DA4"/>
<rect id="Rectangle 1230" x="16.6318" y="35.9404" width="16.9775" height="1.8164" rx="0.908202" fill="#A09DA4"/>
<g id="Subtract_2" filter="url(#filter4_f_477_715)">
<path d="M34.5294 8.44531C34.519 8.56571 34.5137 8.6875 34.5137 8.81048C34.5137 11.0366 36.2538 12.8711 38.4994 13.1299C39.0135 13.1892 39.4803 12.837 39.542 12.3432C39.6037 11.8495 39.2369 11.4013 38.7229 11.342C37.4082 11.1905 36.3887 10.1142 36.3887 8.81048C36.3887 8.68649 36.3979 8.56457 36.4157 8.44531H34.5294Z" fill="#D3CCDC"/>
</g>
<g id="Subtract_3" filter="url(#filter5_f_477_715)">
<path d="M27.4991 8.44531C27.4887 8.56571 27.4834 8.6875 27.4834 8.81048C27.4834 11.0366 29.2235 12.8711 31.4692 13.1299C31.9833 13.1892 32.45 12.837 32.5117 12.3432C32.5734 11.8495 32.2067 11.4013 31.6926 11.342C30.378 11.1905 29.3584 10.1142 29.3584 8.81048C29.3584 8.68649 29.3676 8.56457 29.3854 8.44531H27.4991Z" fill="#D3CCDC"/>
</g>
<g id="Subtract_4" filter="url(#filter6_f_477_715)">
<path d="M20.4669 8.44531C20.4565 8.56571 20.4512 8.6875 20.4512 8.81048C20.4512 11.0366 22.1913 12.8711 24.4369 13.1299C24.951 13.1892 25.4178 12.837 25.4795 12.3432C25.5412 11.8495 25.1744 11.4013 24.6604 11.342C23.3457 11.1905 22.3262 10.1142 22.3262 8.81048C22.3262 8.68649 22.3354 8.56457 22.3532 8.44531H20.4669Z" fill="#D4CDDC"/>
</g>
<g id="Intersect" filter="url(#filter7_f_477_715)">
<path d="M13.6191 9.302C13.7813 11.294 15.3938 12.8938 17.4437 13.1301C17.9387 13.1871 18.3882 12.848 18.4476 12.3726C18.507 11.8971 18.1539 11.4655 17.6588 11.4084C16.393 11.2626 15.4112 10.2261 15.4112 8.97077C15.4112 8.85138 15.4201 8.73398 15.4372 8.61914H14.4998C14.1519 8.77043 13.8496 9.00681 13.6191 9.302Z" fill="#D0C9D7"/>
</g>
<g id="Subtract_5" filter="url(#filter8_i_477_715)">
<path d="M16.123 8.63208C16.123 7.16575 17.3117 5.97705 18.7781 5.97705C20.1153 5.97705 21.2216 6.96565 21.4061 8.25185H23.2924C23.0992 5.92791 21.1519 4.10205 18.7781 4.10205C16.2762 4.10205 14.248 6.13021 14.248 8.63208C14.248 10.95 15.9882 12.8602 18.2338 13.1297C18.7479 13.1913 19.2147 12.8246 19.2763 12.3105C19.338 11.7965 18.9713 11.3297 18.4572 11.268C17.1426 11.1103 16.123 9.98954 16.123 8.63208Z" fill="url(#paint7_linear_477_715)"/>
</g>
<g id="Subtract_6" filter="url(#filter9_i_477_715)">
<path d="M23.3076 8.63208C23.3076 7.16575 24.4963 5.97705 25.9626 5.97705C27.2999 5.97705 28.4062 6.96565 28.5907 8.25185H30.4769C30.2838 5.92791 28.3365 4.10205 25.9626 4.10205C23.4608 4.10205 21.4326 6.13021 21.4326 8.63208C21.4326 10.95 23.1727 12.8602 25.4184 13.1297C25.9325 13.1913 26.3992 12.8246 26.4609 12.3105C26.5226 11.7965 26.1559 11.3297 25.6418 11.268C24.3272 11.1103 23.3076 9.98954 23.3076 8.63208Z" fill="url(#paint8_linear_477_715)"/>
</g>
<g id="Subtract_7" filter="url(#filter10_i_477_715)">
<path d="M30.4932 8.63208C30.4932 7.16575 31.6819 5.97705 33.1482 5.97705C34.4854 5.97705 35.5918 6.96565 35.7762 8.25185H37.6625C37.4694 5.92791 35.522 4.10205 33.1482 4.10205C30.6463 4.10205 28.6182 6.13021 28.6182 8.63208C28.6182 10.95 30.3583 12.8602 32.6039 13.1297C33.118 13.1913 33.5848 12.8246 33.6465 12.3105C33.7082 11.7965 33.3414 11.3297 32.8273 11.268C31.5127 11.1103 30.4932 9.98954 30.4932 8.63208Z" fill="url(#paint9_linear_477_715)"/>
</g>
<g id="Subtract_8" filter="url(#filter11_i_477_715)">
<path d="M37.6787 8.63208C37.6787 7.16575 38.8674 5.97705 40.3337 5.97705C41.671 5.97705 42.7773 6.96565 42.9617 8.25185H44.848C44.6549 5.92791 42.7076 4.10205 40.3337 4.10205C37.8319 4.10205 35.8037 6.13021 35.8037 8.63208C35.8037 10.95 37.5438 12.8602 39.7895 13.1297C40.3036 13.1913 40.7703 12.8246 40.832 12.3105C40.8937 11.7965 40.527 11.3297 40.0129 11.268C38.6983 11.1103 37.6787 9.98954 37.6787 8.63208Z" fill="url(#paint10_linear_477_715)"/>
</g>
<g id="Ellipse 295" filter="url(#filter12_f_477_715)">
<path d="M43.9178 8.46909C43.9178 6.57528 42.4037 5.04004 40.536 5.04004C38.6683 5.04004 37.1543 6.57528 37.1543 8.46909C37.1543 10.2232 38.4532 11.6696 40.1289 11.8735" stroke="url(#paint11_linear_477_715)" stroke-width="0.296875" stroke-linecap="round"/>
</g>
<g id="Ellipse 296" filter="url(#filter13_f_477_715)">
<path d="M36.7625 8.46909C36.7625 6.57528 35.2484 5.04004 33.3808 5.04004C31.5131 5.04004 29.999 6.57528 29.999 8.46909C29.999 10.2232 31.2979 11.6696 32.9736 11.8735" stroke="url(#paint12_linear_477_715)" stroke-width="0.296875" stroke-linecap="round"/>
</g>
<g id="Ellipse 297" filter="url(#filter14_f_477_715)">
<path d="M29.3367 8.46909C29.3367 6.57528 27.8227 5.04004 25.955 5.04004C24.0873 5.04004 22.5732 6.57528 22.5732 8.46909C22.5732 10.2232 23.8721 11.6696 25.5478 11.8735" stroke="url(#paint13_linear_477_715)" stroke-width="0.296875" stroke-linecap="round"/>
</g>
<g id="Ellipse 298" filter="url(#filter15_f_477_715)">
<path d="M22.1834 8.46909C22.1834 6.57528 20.6693 5.04004 18.8017 5.04004C16.934 5.04004 15.4199 6.57528 15.4199 8.46909C15.4199 10.2232 16.7188 11.6696 18.3945 11.8735" stroke="url(#paint14_linear_477_715)" stroke-width="0.296875" stroke-linecap="round"/>
</g>
</g>
<defs>
<filter id="filter0_i_477_715" x="14.1881" y="8.25195" width="34.3021" height="48.2266" filterUnits="userSpaceOnUse" color-interpolation-filters="sRGB">
<feFlood flood-opacity="0" result="BackgroundImageFix"/>
<feBlend mode="normal" in="SourceGraphic" in2="BackgroundImageFix" result="shape"/>
<feColorMatrix in="SourceAlpha" type="matrix" values="0 0 0 0 0 0 0 0 0 0 0 0 0 0 0 0 0 0 127 0" result="hardAlpha"/>
<feOffset dx="-0.178125"/>
<feGaussianBlur stdDeviation="0.11875"/>
<feComposite in2="hardAlpha" operator="arithmetic" k2="-1" k3="1"/>
<feColorMatrix type="matrix" values="0 0 0 0 0.87451 0 0 0 0 0.847059 0 0 0 0 0.905882 0 0 0 1 0"/>
<feBlend mode="normal" in2="shape" result="effect1_innerShadow_477_715"/>
</filter>
<filter id="filter1_iiii_477_715" x="12.701" y="8.07383" width="34.5396" height="48.4641" filterUnits="userSpaceOnUse" color-interpolation-filters="sRGB">
<feFlood flood-opacity="0" result="BackgroundImageFix"/>
<feBlend mode="normal" in="SourceGraphic" in2="BackgroundImageFix" result="shape"/>
<feColorMatrix in="SourceAlpha" type="matrix" values="0 0 0 0 0 0 0 0 0 0 0 0 0 0 0 0 0 0 127 0" result="hardAlpha"/>
<feOffset dx="0.178125" dy="-0.178125"/>
<feGaussianBlur stdDeviation="0.148438"/>
<feComposite in2="hardAlpha" operator="arithmetic" k2="-1" k3="1"/>
<feColorMatrix type="matrix" values="0 0 0 0 0.792157 0 0 0 0 0.756863 0 0 0 0 0.835294 0 0 0 1 0"/>
<feBlend mode="normal" in2="shape" result="effect1_innerShadow_477_715"/>
<feColorMatrix in="SourceAlpha" type="matrix" values="0 0 0 0 0 0 0 0 0 0 0 0 0 0 0 0 0 0 127 0" result="hardAlpha"/>
<feOffset dx="-0.2375"/>
<feGaussianBlur stdDeviation="0.148438"/>
<feComposite in2="hardAlpha" operator="arithmetic" k2="-1" k3="1"/>
<feColorMatrix type="matrix" values="0 0 0 0 1 0 0 0 0 1 0 0 0 0 1 0 0 0 1 0"/>
<feBlend mode="normal" in2="effect1_innerShadow_477_715" result="effect2_innerShadow_477_715"/>
<feColorMatrix in="SourceAlpha" type="matrix" values="0 0 0 0 0 0 0 0 0 0 0 0 0 0 0 0 0 0 127 0" result="hardAlpha"/>
<feOffset dy="-0.178125"/>
<feGaussianBlur stdDeviation="0.0890625"/>
<feComposite in2="hardAlpha" operator="arithmetic" k2="-1" k3="1"/>
<feColorMatrix type="matrix" values="0 0 0 0 0.721569 0 0 0 0 0.623529 0 0 0 0 0.819608 0 0 0 1 0"/>
<feBlend mode="normal" in2="effect2_innerShadow_477_715" result="effect3_innerShadow_477_715"/>
<feColorMatrix in="SourceAlpha" type="matrix" values="0 0 0 0 0 0 0 0 0 0 0 0 0 0 0 0 0 0 127 0" result="hardAlpha"/>
<feOffset dy="0.059375"/>
<feGaussianBlur stdDeviation="0.059375"/>
<feComposite in2="hardAlpha" operator="arithmetic" k2="-1" k3="1"/>
<feColorMatrix type="matrix" values="0 0 0 0 0.858824 0 0 0 0 0.85098 0 0 0 0 0.870588 0 0 0 1 0"/>
<feBlend mode="normal" in2="effect3_innerShadow_477_715" result="effect4_innerShadow_477_715"/>
</filter>
<filter id="filter2_f_477_715" x="34.6855" y="44.8574" width="11.7002" height="11.9019" filterUnits="userSpaceOnUse" color-interpolation-filters="sRGB">
<feFlood flood-opacity="0" result="BackgroundImageFix"/>
<feBlend mode="normal" in="SourceGraphic" in2="BackgroundImageFix" result="shape"/>
<feGaussianBlur stdDeviation="0.148438" result="effect1_foregroundBlur_477_715"/>
</filter>
<filter id="filter3_i_477_715" x="35.4648" y="44.5365" width="11.7154" height="11.9259" filterUnits="userSpaceOnUse" color-interpolation-filters="sRGB">
<feFlood flood-opacity="0" result="BackgroundImageFix"/>
<feBlend mode="normal" in="SourceGraphic" in2="BackgroundImageFix" result="shape"/>
<feColorMatrix in="SourceAlpha" type="matrix" values="0 0 0 0 0 0 0 0 0 0 0 0 0 0 0 0 0 0 127 0" result="hardAlpha"/>
<feOffset dx="0.11875" dy="-0.11875"/>
<feGaussianBlur stdDeviation="0.178125"/>
<feComposite in2="hardAlpha" operator="arithmetic" k2="-1" k3="1"/>
<feColorMatrix type="matrix" values="0 0 0 0 0.686275 0 0 0 0 0.647059 0 0 0 0 0.729412 0 0 0 1 0"/>
<feBlend mode="normal" in2="shape" result="effect1_innerShadow_477_715"/>
</filter>
<filter id="filter4_f_477_715" x="33.9793" y="7.91094" width="6.10391" height="5.75967" filterUnits="userSpaceOnUse" color-interpolation-filters="sRGB">
<feFlood flood-opacity="0" result="BackgroundImageFix"/>
<feBlend mode="normal" in="SourceGraphic" in2="BackgroundImageFix" result="shape"/>
<feGaussianBlur stdDeviation="0.267188" result="effect1_foregroundBlur_477_715"/>
</filter>
<filter id="filter5_f_477_715" x="26.949" y="7.91094" width="6.10391" height="5.75967" filterUnits="userSpaceOnUse" color-interpolation-filters="sRGB">
<feFlood flood-opacity="0" result="BackgroundImageFix"/>
<feBlend mode="normal" in="SourceGraphic" in2="BackgroundImageFix" result="shape"/>
<feGaussianBlur stdDeviation="0.267188" result="effect1_foregroundBlur_477_715"/>
</filter>
<filter id="filter6_f_477_715" x="19.9168" y="7.91094" width="6.10391" height="5.75967" filterUnits="userSpaceOnUse" color-interpolation-filters="sRGB">
<feFlood flood-opacity="0" result="BackgroundImageFix"/>
<feBlend mode="normal" in="SourceGraphic" in2="BackgroundImageFix" result="shape"/>
<feGaussianBlur stdDeviation="0.267188" result="effect1_foregroundBlur_477_715"/>
</filter>
<filter id="filter7_f_477_715" x="13.0848" y="8.08477" width="5.90371" height="5.58584" filterUnits="userSpaceOnUse" color-interpolation-filters="sRGB">
<feFlood flood-opacity="0" result="BackgroundImageFix"/>
<feBlend mode="normal" in="SourceGraphic" in2="BackgroundImageFix" result="shape"/>
<feGaussianBlur stdDeviation="0.267188" result="effect1_foregroundBlur_477_715"/>
</filter>
<filter id="filter8_i_477_715" x="14.248" y="3.92393" width="9.34082" height="9.2123" filterUnits="userSpaceOnUse" color-interpolation-filters="sRGB">
<feFlood flood-opacity="0" result="BackgroundImageFix"/>
<feBlend mode="normal" in="SourceGraphic" in2="BackgroundImageFix" result="shape"/>
<feColorMatrix in="SourceAlpha" type="matrix" values="0 0 0 0 0 0 0 0 0 0 0 0 0 0 0 0 0 0 127 0" result="hardAlpha"/>
<feOffset dx="0.296875" dy="-0.178125"/>
<feGaussianBlur stdDeviation="0.35625"/>
<feComposite in2="hardAlpha" operator="arithmetic" k2="-1" k3="1"/>
<feColorMatrix type="matrix" values="0 0 0 0 0.647059 0 0 0 0 0.607843 0 0 0 0 0.694118 0 0 0 1 0"/>
<feBlend mode="normal" in2="shape" result="effect1_innerShadow_477_715"/>
</filter>
<filter id="filter9_i_477_715" x="21.4326" y="3.92393" width="9.34082" height="9.2123" filterUnits="userSpaceOnUse" color-interpolation-filters="sRGB">
<feFlood flood-opacity="0" result="BackgroundImageFix"/>
<feBlend mode="normal" in="SourceGraphic" in2="BackgroundImageFix" result="shape"/>
<feColorMatrix in="SourceAlpha" type="matrix" values="0 0 0 0 0 0 0 0 0 0 0 0 0 0 0 0 0 0 127 0" result="hardAlpha"/>
<feOffset dx="0.296875" dy="-0.178125"/>
<feGaussianBlur stdDeviation="0.35625"/>
<feComposite in2="hardAlpha" operator="arithmetic" k2="-1" k3="1"/>
<feColorMatrix type="matrix" values="0 0 0 0 0.647059 0 0 0 0 0.607843 0 0 0 0 0.694118 0 0 0 1 0"/>
<feBlend mode="normal" in2="shape" result="effect1_innerShadow_477_715"/>
</filter>
<filter id="filter10_i_477_715" x="28.6182" y="3.92393" width="9.34082" height="9.2123" filterUnits="userSpaceOnUse" color-interpolation-filters="sRGB">
<feFlood flood-opacity="0" result="BackgroundImageFix"/>
<feBlend mode="normal" in="SourceGraphic" in2="BackgroundImageFix" result="shape"/>
<feColorMatrix in="SourceAlpha" type="matrix" values="0 0 0 0 0 0 0 0 0 0 0 0 0 0 0 0 0 0 127 0" result="hardAlpha"/>
<feOffset dx="0.296875" dy="-0.178125"/>
<feGaussianBlur stdDeviation="0.35625"/>
<feComposite in2="hardAlpha" operator="arithmetic" k2="-1" k3="1"/>
<feColorMatrix type="matrix" values="0 0 0 0 0.647059 0 0 0 0 0.607843 0 0 0 0 0.694118 0 0 0 1 0"/>
<feBlend mode="normal" in2="shape" result="effect1_innerShadow_477_715"/>
</filter>
<filter id="filter11_i_477_715" x="35.8037" y="3.92393" width="9.34082" height="9.2123" filterUnits="userSpaceOnUse" color-interpolation-filters="sRGB">
<feFlood flood-opacity="0" result="BackgroundImageFix"/>
<feBlend mode="normal" in="SourceGraphic" in2="BackgroundImageFix" result="shape"/>
<feColorMatrix in="SourceAlpha" type="matrix" values="0 0 0 0 0 0 0 0 0 0 0 0 0 0 0 0 0 0 127 0" result="hardAlpha"/>
<feOffset dx="0.296875" dy="-0.178125"/>
<feGaussianBlur stdDeviation="0.35625"/>
<feComposite in2="hardAlpha" operator="arithmetic" k2="-1" k3="1"/>
<feColorMatrix type="matrix" values="0 0 0 0 0.647059 0 0 0 0 0.607843 0 0 0 0 0.694118 0 0 0 1 0"/>
<feBlend mode="normal" in2="shape" result="effect1_innerShadow_477_715"/>
</filter>
<filter id="filter12_f_477_715" x="36.7684" y="4.6541" width="7.53555" height="7.60537" filterUnits="userSpaceOnUse" color-interpolation-filters="sRGB">
<feFlood flood-opacity="0" result="BackgroundImageFix"/>
<feBlend mode="normal" in="SourceGraphic" in2="BackgroundImageFix" result="shape"/>
<feGaussianBlur stdDeviation="0.11875" result="effect1_foregroundBlur_477_715"/>
</filter>
<filter id="filter13_f_477_715" x="29.6131" y="4.6541" width="7.53555" height="7.60537" filterUnits="userSpaceOnUse" color-interpolation-filters="sRGB">
<feFlood flood-opacity="0" result="BackgroundImageFix"/>
<feBlend mode="normal" in="SourceGraphic" in2="BackgroundImageFix" result="shape"/>
<feGaussianBlur stdDeviation="0.11875" result="effect1_foregroundBlur_477_715"/>
</filter>
<filter id="filter14_f_477_715" x="22.1873" y="4.6541" width="7.53555" height="7.60537" filterUnits="userSpaceOnUse" color-interpolation-filters="sRGB">
<feFlood flood-opacity="0" result="BackgroundImageFix"/>
<feBlend mode="normal" in="SourceGraphic" in2="BackgroundImageFix" result="shape"/>
<feGaussianBlur stdDeviation="0.11875" result="effect1_foregroundBlur_477_715"/>
</filter>
<filter id="filter15_f_477_715" x="15.034" y="4.6541" width="7.53555" height="7.60537" filterUnits="userSpaceOnUse" color-interpolation-filters="sRGB">
<feFlood flood-opacity="0" result="BackgroundImageFix"/>
<feBlend mode="normal" in="SourceGraphic" in2="BackgroundImageFix" result="shape"/>
<feGaussianBlur stdDeviation="0.11875" result="effect1_foregroundBlur_477_715"/>
</filter>
<linearGradient id="paint0_linear_477_715" x1="48.4903" y1="55.4962" x2="41.5487" y2="47.4689" gradientUnits="userSpaceOnUse">
<stop stop-color="#E5DBF1"/>
<stop offset="0.759025" stop-color="#DACEE5"/>
</linearGradient>
<linearGradient id="paint1_linear_477_715" x1="48.4903" y1="8.85557" x2="48.4903" y2="49.4861" gradientUnits="userSpaceOnUse">
<stop offset="0.468613" stop-color="#C4BFCA"/>
<stop offset="1" stop-color="#C6C1CB" stop-opacity="0"/>
</linearGradient>
<linearGradient id="paint2_linear_477_715" x1="49.135" y1="56.4786" x2="47.474" y2="56.4786" gradientUnits="userSpaceOnUse">
<stop stop-color="#F2E9FC"/>
<stop offset="1" stop-color="#F2E9FC" stop-opacity="0"/>
</linearGradient>
<linearGradient id="paint3_linear_477_715" x1="40.5526" y1="56.8439" x2="40.5526" y2="55.7306" gradientUnits="userSpaceOnUse">
<stop stop-color="#D4C7E2"/>
<stop offset="1" stop-color="#D4C7E2" stop-opacity="0"/>
</linearGradient>
<linearGradient id="paint4_linear_477_715" x1="30.0005" y1="8.25195" x2="30.0005" y2="56.4786" gradientUnits="userSpaceOnUse">
<stop stop-color="#F1EBF7"/>
<stop offset="1" stop-color="#E6DCF1"/>
</linearGradient>
<linearGradient id="paint5_linear_477_715" x1="35.9238" y1="47.6445" x2="40.3769" y2="52.8594" gradientUnits="userSpaceOnUse">
<stop stop-color="#D9D1E3"/>
<stop offset="0.900635" stop-color="#C8BDD3"/>
</linearGradient>
<linearGradient id="paint6_linear_477_715" x1="41.2633" y1="44.9492" x2="41.2633" y2="46.4727" gradientUnits="userSpaceOnUse">
<stop stop-color="#DDD9E1"/>
<stop offset="1" stop-color="#DDD9E1" stop-opacity="0"/>
</linearGradient>
<linearGradient id="paint7_linear_477_715" x1="21.9861" y1="6.39453" x2="17.7966" y2="13.6016" gradientUnits="userSpaceOnUse">
<stop stop-color="#CECCD0"/>
<stop offset="1" stop-color="#ADA9B2"/>
</linearGradient>
<linearGradient id="paint8_linear_477_715" x1="29.1707" y1="6.39453" x2="24.9812" y2="13.6016" gradientUnits="userSpaceOnUse">
<stop stop-color="#CECCD0"/>
<stop offset="1" stop-color="#ADA9B2"/>
</linearGradient>
<linearGradient id="paint9_linear_477_715" x1="36.3562" y1="6.39453" x2="32.1667" y2="13.6016" gradientUnits="userSpaceOnUse">
<stop stop-color="#CECCD0"/>
<stop offset="1" stop-color="#ADA9B2"/>
</linearGradient>
<linearGradient id="paint10_linear_477_715" x1="43.5417" y1="6.39453" x2="39.3523" y2="13.6016" gradientUnits="userSpaceOnUse">
<stop stop-color="#CECCD0"/>
<stop offset="1" stop-color="#ADA9B2"/>
</linearGradient>
<linearGradient id="paint11_linear_477_715" x1="39" y1="3.99268" x2="43.7561" y2="8.93648" gradientUnits="userSpaceOnUse">
<stop stop-color="#DCD9E0"/>
<stop offset="1" stop-color="#DCD9E0" stop-opacity="0"/>
</linearGradient>
<linearGradient id="paint12_linear_477_715" x1="31.8447" y1="3.99268" x2="36.6008" y2="8.93647" gradientUnits="userSpaceOnUse">
<stop stop-color="#DCD9E0"/>
<stop offset="1" stop-color="#DCD9E0" stop-opacity="0"/>
</linearGradient>
<linearGradient id="paint13_linear_477_715" x1="24.4189" y1="3.99268" x2="29.175" y2="8.93648" gradientUnits="userSpaceOnUse">
<stop stop-color="#DCD9E0"/>
<stop offset="1" stop-color="#DCD9E0" stop-opacity="0"/>
</linearGradient>
<linearGradient id="paint14_linear_477_715" x1="17.2656" y1="3.99268" x2="22.0217" y2="8.93647" gradientUnits="userSpaceOnUse">
<stop stop-color="#DCD9E0"/>
<stop offset="1" stop-color="#DCD9E0" stop-opacity="0"/>
</linearGradient>
</defs>
</svg>
