<svg viewBox="0 0 59 53" fill="none" xmlns="http://www.w3.org/2000/svg">
<g clip-path="url(#clip0_477_675)">
<path d="M48.6183 17.1622C47.997 16.949 47.3704 16.7515 46.7392 16.5699C46.8452 16.1366 46.9428 15.7085 47.0295 15.2879C48.4521 8.38173 47.5221 2.81796 44.3455 0.986103C41.2999 -0.770037 36.319 1.06114 31.2886 5.4394C30.7929 5.87167 30.3081 6.3164 29.8348 6.77316C29.518 6.46943 29.1955 6.17159 28.8676 5.87981C23.5955 1.19844 18.3111 -0.774599 15.138 1.06251C12.0951 2.82412 11.194 8.05445 12.4748 14.5996C12.6022 15.2478 12.7461 15.8927 12.9062 16.5336C12.1582 16.7462 11.4364 16.9725 10.7457 17.2133C4.56455 19.3686 0.617188 22.746 0.617188 26.2494C0.617188 29.8678 4.85486 33.4971 11.2928 35.6977C11.8147 35.8754 12.341 36.04 12.8711 36.1915C12.699 36.8818 12.5461 37.5767 12.4127 38.2756C11.1917 44.7072 12.1452 49.8139 15.1799 51.5643C18.3143 53.372 23.575 51.5141 28.6973 47.036C29.1126 46.6719 29.5189 46.2975 29.9155 45.9132C30.4281 46.4078 30.9543 46.888 31.4937 47.3532C36.4556 51.6232 41.356 53.3474 44.3877 51.5921C47.5191 49.7792 48.5369 44.2932 47.2156 37.6187C47.1115 37.0958 46.9948 36.5755 46.8655 36.0583C47.235 35.9488 47.5976 35.8361 47.9511 35.7189C54.6439 33.5014 58.9986 29.9161 58.9986 26.2494C58.9986 22.7333 54.9238 19.333 48.6183 17.1622ZM47.1668 33.3515C46.8475 33.4571 46.52 33.5591 46.1862 33.6583C45.4473 31.319 44.4502 28.8316 43.2299 26.2615C44.3944 23.7528 45.3531 21.2971 46.0712 18.9731C46.6685 19.146 47.248 19.3282 47.8067 19.5205C53.2093 21.3806 56.5046 24.1304 56.5046 26.2494C56.5046 28.5064 52.9456 31.4364 47.1668 33.3515ZM44.769 38.1032C45.3533 41.0544 45.4366 43.7228 45.0495 45.809C44.702 47.6835 44.0028 48.9331 43.138 49.4337C41.2983 50.4988 37.3637 49.1144 33.1204 45.4625C32.6187 45.03 32.1292 44.5835 31.6524 44.1238C33.2976 42.3245 34.9416 40.2329 36.5462 37.9098C39.3685 37.6593 42.0349 37.2497 44.453 36.6907C44.5694 37.159 44.6748 37.6299 44.769 38.1032ZM20.5207 49.2496C18.7232 49.8844 17.2915 49.9026 16.426 49.4036C14.5845 48.3415 13.8189 44.241 14.8632 38.7408C14.9873 38.0909 15.1294 37.4445 15.2894 36.8025C17.6808 37.3316 20.3278 37.712 23.1567 37.9415C24.7723 40.2146 26.4637 42.304 28.1684 44.1336C27.8062 44.4841 27.4353 44.8257 27.0562 45.1581C24.791 47.1382 22.5212 48.5431 20.5207 49.2496ZM12.0996 33.3376C9.25285 32.3645 6.90186 31.0998 5.29044 29.7198C3.8423 28.4797 3.1114 27.2484 3.1114 26.2494C3.1114 24.1234 6.28064 21.4116 11.5667 19.5686C12.2082 19.3451 12.8796 19.1341 13.5763 18.9361C14.3069 21.3126 15.2652 23.7975 16.4217 26.3101C15.2502 28.8599 14.2782 31.3844 13.5405 33.789C13.0566 33.6504 12.5761 33.4999 12.0996 33.3376ZM14.9225 14.1204C13.8253 8.51287 14.5539 4.28286 16.3877 3.22119C18.3407 2.09042 22.6596 3.70265 27.2117 7.74496C27.5086 8.00916 27.8006 8.2787 28.0877 8.55347C26.3914 10.3751 24.7155 12.4489 23.1143 14.7086C20.3686 14.9632 17.7403 15.3719 15.3238 15.9195C15.1749 15.3233 15.0411 14.7233 14.9225 14.1204ZM40.1056 20.3397C39.5348 19.3537 38.9429 18.3802 38.3302 17.4197C40.1929 17.6553 41.9777 17.968 43.6536 18.3502C43.1506 19.9631 42.5234 21.6493 41.7852 23.378C41.2456 22.3542 40.6856 21.3412 40.1056 20.3397ZM29.8359 10.3363C30.9862 11.5827 32.1384 12.9742 33.2716 14.484C30.9728 14.3754 28.6702 14.3749 26.3714 14.4826C27.5057 12.9867 28.6676 11.5971 29.8359 10.3363ZM19.5004 20.3566C18.9276 21.35 18.3781 22.3567 17.8522 23.3758C17.1261 21.6531 16.5047 19.9593 15.9973 18.3235C17.663 17.9509 19.4393 17.6462 21.2901 17.4149C20.6706 18.3812 20.0739 19.3622 19.5004 20.3566ZM21.3433 35.2614C19.4311 35.0479 17.6281 34.759 15.9628 34.3963C16.4782 32.7314 17.1134 31.0015 17.8552 29.2419C18.3831 30.2618 18.9349 31.2691 19.5102 32.263C20.1018 33.2847 20.7143 34.2855 21.3433 35.2614ZM29.9048 42.3384C28.7226 41.0631 27.5436 39.652 26.3921 38.1344C27.51 38.1782 28.6496 38.2005 29.8079 38.2005C30.9979 38.2005 32.1742 38.1739 33.332 38.1223C32.1951 39.6673 31.0474 41.0804 29.9048 42.3384ZM41.8087 29.1521C42.5891 30.931 43.2468 32.6518 43.769 34.2882C42.0764 34.6746 40.2488 34.9857 38.3231 35.2167C38.9402 34.2384 39.5377 33.2479 40.1154 32.2459C40.7027 31.2273 41.2673 30.1958 41.8087 29.1521ZM37.9551 30.9997C37.0707 32.536 36.1367 34.0433 35.1544 35.5189C33.375 35.6449 31.5917 35.7075 29.8079 35.7066C27.991 35.7066 26.2238 35.65 24.5221 35.5396C23.5142 34.0674 22.5623 32.5576 21.6685 31.0134C20.7789 29.4773 19.9482 27.9081 19.1777 26.309C19.9462 24.7095 20.7746 23.1395 21.6612 21.6023L21.6609 21.6025C22.5472 20.0649 23.4914 18.5615 24.4918 17.0956C26.2279 16.9642 28.0083 16.8958 29.8077 16.8958C31.6152 16.8958 33.3981 16.9649 35.1338 17.0972C36.1241 18.5609 37.0623 20.0591 37.9469 21.5891C38.8364 23.1229 39.6757 24.6852 40.4636 26.2736C39.6838 27.8783 38.8471 29.4546 37.9551 30.9997ZM43.0999 3.14684C45.0548 4.27442 45.8151 8.82145 44.5868 14.7843C44.5084 15.1648 44.4203 15.5523 44.3246 15.9452C41.9022 15.386 39.2721 14.9702 36.5183 14.7118C34.9142 12.4272 33.2519 10.3502 31.5833 8.5521C32.0206 8.13052 32.4683 7.71986 32.9261 7.32052C37.2362 3.56945 41.2646 2.08837 43.0999 3.14684ZM29.8079 21.0358C32.6871 21.0358 35.0212 23.3701 35.0212 26.2494C35.0212 29.1288 32.6871 31.4631 29.8079 31.4631C26.9287 31.4631 24.5946 29.1288 24.5946 26.2494C24.5946 23.3701 26.9287 21.0358 29.8079 21.0358Z" fill="#00D8FF"/>
</g>
<defs>
<clipPath id="clip0_477_675">
<rect width="58.386" height="52" fill="white" transform="translate(0.614258 0.325195)"/>
</clipPath>
</defs>
</svg>
